<svg xmlns="http://www.w3.org/2000/svg" xmlns:xlink="http://www.w3.org/1999/xlink" width="16" height="16" viewBox="0 0 16 16"><defs><clipPath id="a"><rect width="16" height="16" transform="translate(546 367)" fill="#fb9918"/></clipPath></defs><g transform="translate(-546 -367)" clip-path="url(#a)"><path d="M9.655,14.556l4,2.413a.833.833,0,0,0,1.242-.9l-1.061-4.548,3.533-3.061A.832.832,0,0,0,16.892,7l-4.651-.394L10.422,2.312a.833.833,0,0,0-1.534,0L7.069,6.605,2.419,7a.832.832,0,0,0-.475,1.459l3.533,3.061L4.416,16.067a.833.833,0,0,0,1.242.9Z" transform="translate(544.345 365.552)" fill="#fb9918"/></g></svg>