<svg xmlns="http://www.w3.org/2000/svg" xmlns:xlink="http://www.w3.org/1999/xlink" width="16" height="16" viewBox="0 0 16 16"><defs><clipPath id="a"><rect width="16" height="16" transform="translate(1290 32)" fill="#7a7c7d"/></clipPath></defs><g transform="translate(-1290 -32)"><g clip-path="url(#a)"><path d="M4.8,1.6A1.6,1.6,0,0,0,3.2,3.2V16a1.6,1.6,0,0,0,1.6,1.6h9.6A1.6,1.6,0,0,0,16,16V12.2l-1.6,1.2V16H4.8V3.2h9.6V5.8L16,7V3.2a1.6,1.6,0,0,0-1.6-1.6Zm8,5V8.8h-4v1.6h4v2.2l4-3Z" transform="translate(1288 30.4)" fill="#7a7c7d"/></g></g></svg>