<svg xmlns="http://www.w3.org/2000/svg" xmlns:xlink="http://www.w3.org/1999/xlink" width="16" height="16" viewBox="0 0 16 16"><defs><clipPath id="a"><rect width="16" height="16" transform="translate(43 136)" fill="#fff"/></clipPath></defs><g transform="translate(-43 -136)" clip-path="url(#a)"><path d="M5.341,2.909A2.494,2.494,0,0,0,2.909,5.455,2.494,2.494,0,0,0,5.341,8c1.818,0,4.841-2.545,4.841-2.545S7.159,2.909,5.341,2.909Zm6.545,0A2.4,2.4,0,0,0,9.773,4.2c.455.335.79.6.886.682l.659.568-.659.568c-.1.08-.432.347-.886.682A2.4,2.4,0,0,0,11.886,8c1.818,0,4.841-2.545,4.841-2.545S13.7,2.909,11.886,2.909ZM5.455,9.455A5.056,5.056,0,0,0,.727,12.364v1.455h9.455V12.364A5.056,5.056,0,0,0,5.455,9.455Zm6.477,0a5.312,5.312,0,0,0-2.614.659,7.056,7.056,0,0,1,1.523,1.955l.068.159v1.591h5.818V12.364A5.331,5.331,0,0,0,11.932,9.455Z" transform="translate(42.273 135.636)" fill="#c8dbee"/></g></svg>