<svg xmlns="http://www.w3.org/2000/svg" xmlns:xlink="http://www.w3.org/1999/xlink" width="16" height="16" viewBox="0 0 16 16"><defs><clipPath id="a"><rect width="16" height="16" transform="translate(43 136)" fill="#fff"/></clipPath></defs><g transform="translate(-43 -136)" clip-path="url(#a)"><path d="M3.2,1.6v4h4L5.95,4.35A6.392,6.392,0,0,1,16,9.6h1.6A8,8,0,0,0,4.8,3.2Zm6.4,4A3.2,3.2,0,0,0,6.4,8.8c0,2.4,3.2,5.6,3.2,5.6s3.2-3.2,3.2-5.6A3.2,3.2,0,0,0,9.6,5.6Zm0,1.6A1.6,1.6,0,1,1,8,8.8,1.6,1.6,0,0,1,9.6,7.2Zm-8,2.4A8,8,0,0,0,14.4,16L16,17.6v-4H12l1.25,1.25A6.392,6.392,0,0,1,3.2,9.6Z" transform="translate(41.4 134.4)" fill="#c8dbee"/></g></svg>