<svg xmlns="http://www.w3.org/2000/svg" xmlns:xlink="http://www.w3.org/1999/xlink" width="56" height="56" viewBox="0 0 56 56"><defs><clipPath id="a"><rect width="31" height="31" transform="translate(287 184)" fill="#091f36"/></clipPath></defs><g transform="translate(-274 -171)"><rect width="56" height="56" rx="4" transform="translate(274 171)" fill="#fafafa"/><path d="M4,1A3,3,0,0,0,1,4V52a3,3,0,0,0,3,3H52a3,3,0,0,0,3-3V4a3,3,0,0,0-3-3H4M4,0H52a4,4,0,0,1,4,4V52a4,4,0,0,1-4,4H4a4,4,0,0,1-4-4V4A4,4,0,0,1,4,0Z" transform="translate(274 171)" fill="#e0e6ec"/><g clip-path="url(#a)"><path d="M7.381,4.429A2.952,2.952,0,0,0,4.429,7.381V28.048A2.955,2.955,0,0,0,7.381,31h9.866a10.224,10.224,0,0,1-.891-2.952H7.381V10.333H28.048v6.02A10.224,10.224,0,0,1,31,17.244V7.381a2.952,2.952,0,0,0-2.952-2.952Zm2.952,10.333v2.952h2.952V14.762Zm5.9,0v2.952H25.1V14.762ZM26.571,19.19a7.381,7.381,0,0,0,0,14.762,7.941,7.941,0,0,0,4.135-1.182l2.655,2.658,2.067-2.067L32.77,30.706a7.941,7.941,0,0,0,1.182-4.135A7.309,7.309,0,0,0,26.571,19.19ZM10.333,20.667v2.952h2.952V20.667Zm16.238,1.476a4.429,4.429,0,1,1-4.429,4.429A4.35,4.35,0,0,1,26.571,22.143Z" transform="translate(282.572 179.571)" fill="#7a7c7d"/></g></g></svg>