<svg xmlns="http://www.w3.org/2000/svg" xmlns:xlink="http://www.w3.org/1999/xlink" width="16" height="16" viewBox="0 0 16 16"><defs><clipPath id="a"><rect width="16" height="16" transform="translate(43 136)" fill="#fff"/></clipPath></defs><g transform="translate(-43 -136)" clip-path="url(#a)"><path d="M1.455,2.182V13.091a2.184,2.184,0,0,0,2.182,2.182H7.7a5.789,5.789,0,0,1-.428-2.182H4.364V11.636h3.1a5.759,5.759,0,0,1,.594-1.455H4.364V8.727H9.251a5.79,5.79,0,0,1,3.839-1.455V2.182ZM4.364,4.364h5.818V6.545H4.364Zm10.182.727V7.463A5.759,5.759,0,0,1,16,8.057V5.091ZM13.091,8.727a4.364,4.364,0,1,0,0,8.727V16a2.911,2.911,0,1,1,2.388-1.249l-.933-.933v2.909h2.909l-.94-.94a4.356,4.356,0,0,0-3.423-7.06Z" transform="translate(41.545 134.182)" fill="#c8dbee"/></g></svg>