<svg xmlns="http://www.w3.org/2000/svg" xmlns:xlink="http://www.w3.org/1999/xlink" width="37" height="37" viewBox="0 0 37 37"><defs><clipPath id="a"><rect width="37" height="37" transform="translate(347 351)" fill="#7a7c7d" stroke="#e0e6ec" stroke-width="1"/></clipPath></defs><g transform="translate(-347 -351)" clip-path="url(#a)"><path d="M21.667,2.707a1.873,1.873,0,0,0-1.911,1.911l.485,11.621c.961-.285,1.929-.555,2.885-.825l.449-10.8A1.871,1.871,0,0,0,21.667,2.707ZM18,3.98a18.061,18.061,0,1,0,7.329.009,3.041,3.041,0,0,1,.044.7l-.081,2.067a15.35,15.35,0,1,1-7.255,0l-.081-2.067A3.118,3.118,0,0,1,18,3.98Zm7.2,5.441-.16,2.066a2.869,2.869,0,0,1,2.117,2.332c0,1.174-1.044,1.875-2.483,2.427-1.7.654-3.953,1.111-5.725,1.895-1.618.715-2.834,1.7-2.834,3.382,0,2.165,2.3,3.612,3.418,4.191l-.2-2.64a2.142,2.142,0,0,1-.769-1.549,1.216,1.216,0,0,1,.571-.989c1.007-.756,3.211-1.075,5.342-1.694,2.6-.754,5.076-1.962,5.076-5.02C29.555,12.109,28.184,10.229,25.207,9.421ZM18.324,10a13.99,13.99,0,0,0-2.365,1.276c-2.117,1.387-2.93,2.586-2.231,3.536.827,1.124,3.239-.658,4.824-1.879Zm4.588,10.558c-.859.207-1.684.409-2.466.617l.337,8.1c.585-.268,1.19-.515,1.8-.744Zm1.082,4.556-.157,2.029a1.219,1.219,0,0,1,.767.994c0,.337-.37.587-.908.827-1.074.476-2.824.9-3.768,1.808a1.921,1.921,0,0,0-.654,1.424,2.3,2.3,0,0,0,.888,1.608,3.373,3.373,0,0,0,.418.317V32.609c0-1.117,1.5-1.577,3-2.094s2.986-1.092,2.986-2.436C26.562,26.622,25.041,25.627,23.994,25.111Zm-1.555,6.8a9.136,9.136,0,0,0-1.514.832L21,34.608a.665.665,0,0,0,1.326,0Z" transform="translate(343.842 348.293)" fill="#113d6b"/></g></svg>