<svg xmlns="http://www.w3.org/2000/svg" xmlns:xlink="http://www.w3.org/1999/xlink" width="16" height="16" viewBox="0 0 16 16"><defs><clipPath id="a"><rect width="16" height="16" transform="translate(401 23.167)" fill="#7a7c7d" stroke="#707070" stroke-width="1"/></clipPath></defs><g transform="translate(-401 -23.167)" clip-path="url(#a)"><path d="M8.727,2.909c-5.818,0-8,5.818-8,5.818s2.182,5.818,8,5.818,8-5.818,8-5.818S14.545,2.909,8.727,2.909Zm0,2.182A3.636,3.636,0,1,1,5.091,8.727,3.637,3.637,0,0,1,8.727,5.091Zm0,1.455a2.182,2.182,0,1,0,2.182,2.182A2.182,2.182,0,0,0,8.727,6.545Z" transform="translate(400.273 22.439)" fill="#7a7c7d"/></g></svg>