<svg xmlns="http://www.w3.org/2000/svg" xmlns:xlink="http://www.w3.org/1999/xlink" width="37" height="37" viewBox="0 0 37 37"><defs><clipPath id="a"><rect width="37" height="37" transform="translate(347 351)" fill="#7a7c7d" stroke="#e0e6ec" stroke-width="1"/></clipPath></defs><g transform="translate(-347 -351)" clip-path="url(#a)"><path d="M20.7,2.643a5.565,5.565,0,0,0-3.918,1.87,11.787,11.787,0,0,0-2.118,3.266,20.291,20.291,0,0,0-8.4.193A1.322,1.322,0,0,0,5.286,9.25,9.234,9.234,0,0,0,6.91,14.623,6.581,6.581,0,0,0,9.393,25.05a6.47,6.47,0,0,0,4.926,9.083,6.453,6.453,0,0,0,12.767,0,6.47,6.47,0,0,0,4.926-9.083,6.586,6.586,0,0,0,2.559-10.344A9.029,9.029,0,0,0,36.119,9.25a1.322,1.322,0,0,0-1.05-1.294,24.212,24.212,0,0,0-8.445-.132A16.266,16.266,0,0,0,24.5,4.561,5.283,5.283,0,0,0,20.7,2.643Zm0,2.643a2.666,2.666,0,0,1,1.865,1.075,15.552,15.552,0,0,1,2.24,3.481,1.322,1.322,0,0,0,1.538.68,17.6,17.6,0,0,1,6.972-.127,5.976,5.976,0,0,1-.824,2.662,6.555,6.555,0,0,0-8.333,2.032,6.563,6.563,0,0,0-6.922-.012,6.6,6.6,0,0,0-5.346-2.743A6.532,6.532,0,0,0,9.019,13a6.993,6.993,0,0,1-.9-2.657A14.268,14.268,0,0,1,15,10.5a1.322,1.322,0,0,0,1.65-.781,10.038,10.038,0,0,1,2.023-3.36A2.991,2.991,0,0,1,20.7,5.286Zm-8.81,9.69a3.947,3.947,0,0,1,3.4,1.943,6.558,6.558,0,0,0-1.043,5.2,3.963,3.963,0,1,1-2.359-7.147Zm17.619,0a3.955,3.955,0,0,1,.26,7.9l-.053.005c-.07,0-.136.021-.206.021a3.906,3.906,0,0,1-2.357-.8,6.526,6.526,0,0,0-1.046-5.186A3.945,3.945,0,0,1,29.512,14.976ZM20.7,16.738a3.954,3.954,0,0,1,.361,7.892,1.322,1.322,0,0,0-.344.034l-.017,0a3.964,3.964,0,0,1,0-7.929Zm-5.353,7.81a6.6,6.6,0,0,0,3.982,2.6,3.987,3.987,0,0,1,.05.6A3.935,3.935,0,0,1,15.492,31.7a1.321,1.321,0,0,0-.151,0,3.94,3.94,0,0,1-3.2-6.161A6.564,6.564,0,0,0,15.35,24.548Zm10.7.017a6.594,6.594,0,0,0,3.218.97,3.939,3.939,0,0,1-3.2,6.163,1.321,1.321,0,0,0-.151,0,3.935,3.935,0,0,1-3.889-3.949,3.983,3.983,0,0,1,.05-.587A6.636,6.636,0,0,0,26.047,24.565ZM20.7,31.5a6.448,6.448,0,0,0,3.763,2.548,3.874,3.874,0,0,1-7.526,0A6.448,6.448,0,0,0,20.7,31.5Z" transform="translate(344.798 348.357)" fill="#113d6b"/></g></svg>