<svg xmlns="http://www.w3.org/2000/svg" xmlns:xlink="http://www.w3.org/1999/xlink" width="37" height="37" viewBox="0 0 37 37"><defs><clipPath id="a"><rect width="37" height="37" transform="translate(347 351)" fill="#7a7c7d" stroke="#e0e6ec" stroke-width="1"/></clipPath></defs><g transform="translate(-347 -351)" clip-path="url(#a)"><path d="M21.143,2.643a8.2,8.2,0,0,0-2.268.318L4.48,7.1a1.322,1.322,0,0,0,0,2.54L8.81,10.883V14.95a1.322,1.322,0,0,0-.282.482,11.021,11.021,0,0,0-.6,3.508V20.5a4.215,4.215,0,0,0-1.762,3.286A4.366,4.366,0,0,0,9.62,28a18.672,18.672,0,0,0,3.952,7.97,10.277,10.277,0,0,0,7.571,3.675,10.277,10.277,0,0,0,7.571-3.675A18.673,18.673,0,0,0,32.666,28a4.366,4.366,0,0,0,3.453-4.212A4.215,4.215,0,0,0,34.357,20.5V18.94a11.013,11.013,0,0,0-.6-3.508,1.322,1.322,0,0,0-.282-.471V10.883l4.329-1.244a1.322,1.322,0,0,0,0-2.54L23.411,2.961A8.2,8.2,0,0,0,21.143,2.643Zm0,2.643a5.576,5.576,0,0,1,1.538.215l9.978,2.868-9.98,2.868a5.612,5.612,0,0,1-3.075,0L9.627,8.369,19.6,5.5A5.576,5.576,0,0,1,21.143,5.286Zm-9.69,6.358,7.423,2.134a8.215,8.215,0,0,0,4.535,0l7.423-2.134v2.472a20.122,20.122,0,0,1-9.487,2.622A21.534,21.534,0,0,1,11.452,14.1Zm-.588,5.193a23.784,23.784,0,0,0,10.492,2.545,22.48,22.48,0,0,0,10.072-2.516,8.239,8.239,0,0,1,.286,2.075v2.1a1.322,1.322,0,0,0,.754,1.194,1.7,1.7,0,0,1,1.008,1.555,1.742,1.742,0,0,1-1.762,1.762c.233,0,.217-.005-.053-.005a1.322,1.322,0,0,0-1.294,1.05,16.464,16.464,0,0,1-3.615,7.6A7.57,7.57,0,0,1,21.143,37a7.57,7.57,0,0,1-5.609-2.8,16.464,16.464,0,0,1-3.615-7.6,1.322,1.322,0,0,0-1.294-1.05c-.27,0-.286.005-.053.005A1.742,1.742,0,0,1,8.81,23.786,1.7,1.7,0,0,1,9.818,22.23a1.322,1.322,0,0,0,.754-1.194v-2.1A8.276,8.276,0,0,1,10.864,16.836Zm5.874,5.188A1.762,1.762,0,1,0,18.5,23.786,1.762,1.762,0,0,0,16.738,22.024Zm8.81,0a1.762,1.762,0,1,0,1.762,1.762A1.762,1.762,0,0,0,25.548,22.024Z" transform="translate(344.357 348.357)" fill="#113d6b"/></g></svg>