<svg xmlns="http://www.w3.org/2000/svg" xmlns:xlink="http://www.w3.org/1999/xlink" width="37" height="37" viewBox="0 0 37 37"><defs><clipPath id="a"><rect width="37" height="37" transform="translate(347 351)" fill="#7a7c7d" stroke="#e0e6ec" stroke-width="1"/></clipPath></defs><g transform="translate(-347 -351)" clip-path="url(#a)"><path d="M7.488,6.167a4.865,4.865,0,0,0-4.845,4.845V26.869a4.865,4.865,0,0,0,4.845,4.845H34.8a4.865,4.865,0,0,0,4.845-4.845V11.012A4.865,4.865,0,0,0,34.8,6.167Zm0,2.643H34.8a2.183,2.183,0,0,1,2.2,2.2V26.869a2.183,2.183,0,0,1-2.2,2.2H7.488a2.183,2.183,0,0,1-2.2-2.2V11.012A2.183,2.183,0,0,1,7.488,8.81Zm5.294,5.267a1.322,1.322,0,0,0-1.3,1.053l-.835,3.756v0a1.322,1.322,0,0,0-.093.413l-.834,3.758a1.322,1.322,0,1,0,2.581.575l.65-2.93h4.339l-.523,2.355a1.322,1.322,0,1,0,2.581.575l.834-3.756v0a1.322,1.322,0,0,0,.093-.413l.834-3.758a1.322,1.322,0,1,0-2.581-.575l-.65,2.93H13.541l.523-2.355a1.322,1.322,0,0,0-1.282-1.628Zm12.325.021a1.322,1.322,0,0,0-1.29,1.034L22.055,23.06a1.322,1.322,0,0,0,1.29,1.609h4.1a4.86,4.86,0,0,0,4.728-3.8l.315-1.416a4.433,4.433,0,0,0-4.3-5.36Zm1.06,2.643h2.022a1.733,1.733,0,0,1,1.721,2.142s0,0,0,0L29.595,20.3a2.192,2.192,0,0,1-2.151,1.726h-2.45ZM13.655,34.357a1.321,1.321,0,1,0,0,2.643H28.631a1.321,1.321,0,1,0,0-2.643Z" transform="translate(344.357 347.917)" fill="#113d6b"/></g></svg>