<svg xmlns="http://www.w3.org/2000/svg" xmlns:xlink="http://www.w3.org/1999/xlink" width="56" height="56" viewBox="0 0 56 56"><defs><clipPath id="a"><rect width="31" height="31" transform="translate(287 184)" fill="#091f36"/></clipPath></defs><g transform="translate(-274 -171)"><rect width="56" height="56" rx="4" transform="translate(274 171)" fill="#fafafa"/><path d="M4,1A3,3,0,0,0,1,4V52a3,3,0,0,0,3,3H52a3,3,0,0,0,3-3V4a3,3,0,0,0-3-3H4M4,0H52a4,4,0,0,1,4,4V52a4,4,0,0,1-4,4H4a4,4,0,0,1-4-4V4A4,4,0,0,1,4,0Z" transform="translate(274 171)" fill="#e0e6ec"/><g clip-path="url(#a)"><path d="M20.667,5.167a6.889,6.889,0,1,0,6.889,6.889,6.889,6.889,0,0,0-6.889-6.889ZM15.174,24.787c-4.851,1.075-10.007,3.431-10.007,7.074v4.306h31V31.861c0-3.642-5.155-6-10.007-7.074a6.834,6.834,0,0,1-10.986,0Z" transform="translate(281.833 178.833)" fill="#7a7c7d"/></g></g></svg>