<svg xmlns="http://www.w3.org/2000/svg" xmlns:xlink="http://www.w3.org/1999/xlink" width="56" height="56" viewBox="0 0 56 56"><defs><clipPath id="a"><rect width="31" height="31" transform="translate(287 184)" fill="#091f36"/></clipPath></defs><g transform="translate(-274 -171)"><rect width="56" height="56" rx="4" transform="translate(274 171)" fill="#fafafa"/><path d="M4,1A3,3,0,0,0,1,4V52a3,3,0,0,0,3,3H52a3,3,0,0,0,3-3V4a3,3,0,0,0-3-3H4M4,0H52a4,4,0,0,1,4,4V52a4,4,0,0,1-4,4H4a4,4,0,0,1-4-4V4A4,4,0,0,1,4,0Z" transform="translate(274 171)" fill="#e0e6ec"/><g clip-path="url(#a)"><path d="M2.818,4.227V25.364a4.232,4.232,0,0,0,4.227,4.227h7.874a11.216,11.216,0,0,1-.828-4.227H8.455V22.545H14.46a11.159,11.159,0,0,1,1.15-2.818H8.455V16.909h9.47a11.218,11.218,0,0,1,7.439-2.818V4.227ZM8.455,8.455H19.727v4.227H8.455ZM28.182,9.864v4.6A11.159,11.159,0,0,1,31,15.61V9.864Zm-2.818,7.045a8.455,8.455,0,1,0,0,16.909V31a5.64,5.64,0,1,1,4.626-2.419l-1.808-1.808v5.636h5.636L32,30.587a8.44,8.44,0,0,0-6.633-13.678Z" transform="translate(284.182 180.477)" fill="#7a7c7d"/></g></g></svg>