<svg xmlns="http://www.w3.org/2000/svg" xmlns:xlink="http://www.w3.org/1999/xlink" width="16" height="16" viewBox="0 0 16 16"><defs><clipPath id="a"><rect width="16" height="16" transform="translate(43 136)" fill="#fff"/></clipPath></defs><g transform="translate(-43 -136)" clip-path="url(#a)"><path d="M10.25,2.526,2.178,10.6a1.684,1.684,0,0,0,0,2.382L7.23,18.033a1.684,1.684,0,0,0,2.382,0l8.073-8.073V2.526Zm2.732,7.658L11.948,9.15c.752-.751.551-1.189.417-1.323-.073-.073-.432-.394-1.048.223-1.076,1.076,1.152,2.634-.6,4.388a1.937,1.937,0,0,1-2.7.237l-.728.728-.549-.548.728-.728c-.147-.194-1.17-1.469.413-3.051l1.034,1.034c-.935.935-.413,1.379-.34,1.452s.49.46,1.1-.151c1.22-1.22-1.214-2.571.614-4.4a1.961,1.961,0,0,1,2.7-.248l.782-.782.552.552-.8.8C13.661,7.539,14.42,8.746,12.982,10.185Z" transform="translate(41.316 133.474)" fill="#c8dbee"/></g></svg>