<svg xmlns="http://www.w3.org/2000/svg" xmlns:xlink="http://www.w3.org/1999/xlink" width="16" height="16" viewBox="0 0 16 16"><defs><clipPath id="a"><rect width="16" height="16" transform="translate(271 1)" fill="#3c7fc6"/></clipPath></defs><g transform="translate(-271 -1)" clip-path="url(#a)"><path d="M9.143,2.286A3.048,3.048,0,1,0,12.19,5.333,3.048,3.048,0,0,0,9.143,2.286Zm3.81,6.1A1.535,1.535,0,0,0,11.429,9.9v.762h-.762A1.528,1.528,0,0,0,9.143,12.19v4.571a1.528,1.528,0,0,0,1.524,1.524h6.1a1.528,1.528,0,0,0,1.524-1.524V12.19a1.528,1.528,0,0,0-1.524-1.524H16V9.9a1.535,1.535,0,0,0-1.524-1.524Zm0,1.524h1.524v.762H12.952Zm-4.967.838c-2.438.29-5.7,1.433-5.7,3.353V16H7.619V12.19A3.069,3.069,0,0,1,7.985,10.743Zm4.744,1.671.985.985.985-.985,1.077,1.077-.985.985.985.985L14.7,16.539l-.985-.985-.985.985-1.077-1.077.985-.985-.985-.985Z" transform="translate(268.714 -1.286)" fill="#3c7fc6"/></g></svg>