<svg xmlns="http://www.w3.org/2000/svg" xmlns:xlink="http://www.w3.org/1999/xlink" width="24" height="24" viewBox="0 0 24 24"><defs><clipPath id="a"><rect width="24" height="24" transform="translate(991 28)" fill="#8ba0b7"/></clipPath></defs><g transform="translate(-991 -28)" clip-path="url(#a)"><path d="M14.4,2.4a1.8,1.8,0,0,0-1.8,1.8v.834A7.2,7.2,0,0,0,7.2,12v7.2L4.8,21.6v1.2H24V21.6l-2.4-2.4V12a7.194,7.194,0,0,0-5.4-6.963V4.2A1.8,1.8,0,0,0,14.4,2.4ZM12,24a2.4,2.4,0,1,0,4.8,0Z" transform="translate(988.6 25.6)" fill="#8ba0b7"/></g></svg>