<svg xmlns="http://www.w3.org/2000/svg" xmlns:xlink="http://www.w3.org/1999/xlink" width="37" height="37" viewBox="0 0 37 37"><defs><clipPath id="a"><rect width="37" height="37" transform="translate(347 351)" fill="#7a7c7d" stroke="#e0e6ec" stroke-width="1"/></clipPath></defs><g transform="translate(-347 -351)" clip-path="url(#a)"><path d="M17.113,5.55a3.259,3.259,0,0,0-3.238,3.238V11.1H6.938A3.259,3.259,0,0,0,3.7,14.338v22.2a3.259,3.259,0,0,0,3.237,3.237H37.463A3.259,3.259,0,0,0,40.7,36.538v-22.2A3.259,3.259,0,0,0,37.463,11.1H30.525V8.788A3.259,3.259,0,0,0,27.288,5.55Zm0,2.775H27.288a.442.442,0,0,1,.462.463V11.1H16.65V8.788A.442.442,0,0,1,17.113,8.325ZM6.938,13.875H37.463a.442.442,0,0,1,.462.463V26.825H24.975v-.462a1.388,1.388,0,0,0-1.388-1.388H20.813a1.388,1.388,0,0,0-1.387,1.388v.462H6.475V14.338A.442.442,0,0,1,6.938,13.875ZM6.475,29.6h12.95v.462a1.388,1.388,0,0,0,1.387,1.388h2.775a1.388,1.388,0,0,0,1.388-1.388V29.6h12.95v6.938a.442.442,0,0,1-.462.462H6.938a.442.442,0,0,1-.463-.462Z" transform="translate(343.3 346.837)" fill="#113d6b"/></g></svg>