<svg xmlns="http://www.w3.org/2000/svg" xmlns:xlink="http://www.w3.org/1999/xlink" width="16" height="16" viewBox="0 0 16 16"><defs><clipPath id="a"><rect width="16" height="16" transform="translate(43 136)" fill="#c8dbee"/></clipPath></defs><g transform="translate(-43 -136)" clip-path="url(#a)"><path d="M3.81,2.286A1.523,1.523,0,0,0,2.286,3.81V14.476A1.525,1.525,0,0,0,3.81,16H8.9a5.277,5.277,0,0,1-.46-1.524H3.81V5.333H14.476V8.44A5.277,5.277,0,0,1,16,8.9V3.81a1.523,1.523,0,0,0-1.524-1.524ZM5.333,7.619V9.143H6.857V7.619Zm3.048,0V9.143h4.571V7.619ZM13.714,9.9a3.81,3.81,0,1,0,0,7.619,4.1,4.1,0,0,0,2.134-.61l1.371,1.372,1.067-1.067-1.372-1.371a4.1,4.1,0,0,0,.61-2.134A3.773,3.773,0,0,0,13.714,9.9Zm-8.381.762V12.19H6.857V10.667Zm8.381.762a2.286,2.286,0,1,1-2.286,2.286A2.245,2.245,0,0,1,13.714,11.429Z" transform="translate(40.714 133.714)" fill="#c8dbee"/></g></svg>