<svg xmlns="http://www.w3.org/2000/svg" xmlns:xlink="http://www.w3.org/1999/xlink" width="56" height="56" viewBox="0 0 56 56"><defs><clipPath id="a"><rect width="31" height="31" transform="translate(287 184)" fill="#091f36"/></clipPath></defs><g transform="translate(-274 -171)"><rect width="56" height="56" rx="4" transform="translate(274 171)" fill="#fafafa"/><path d="M4,1A3,3,0,0,0,1,4V52a3,3,0,0,0,3,3H52a3,3,0,0,0,3-3V4a3,3,0,0,0-3-3H4M4,0H52a4,4,0,0,1,4,4V52a4,4,0,0,1-4,4H4a4,4,0,0,1-4-4V4A4,4,0,0,1,4,0Z" transform="translate(274 171)" fill="#e0e6ec"/><g clip-path="url(#a)"><path d="M17.714,4.429a5.9,5.9,0,1,0,5.9,5.9,5.9,5.9,0,0,0-5.9-5.9Zm0,16.238c-4.637,0-13.286,2.281-13.286,6.643V31H18.15a10.182,10.182,0,0,1-.326-1.476h.009a10.354,10.354,0,0,1-.118-1.476A10.456,10.456,0,0,1,20.6,20.9,20.212,20.212,0,0,0,17.714,20.667Zm8.952,0a.375.375,0,0,0-.372.332l-.173,1.493A5.856,5.856,0,0,0,24.2,23.6L22.817,23a.371.371,0,0,0-.47.159l-1.384,2.393a.375.375,0,0,0,.1.487l1.191.882a6.025,6.025,0,0,0-.112,1.124,5.862,5.862,0,0,0,.112,1.122l-1.188.885a.374.374,0,0,0-.1.487l1.381,2.393a.373.373,0,0,0,.473.156l1.381-.6a5.867,5.867,0,0,0,1.92,1.11l.173,1.493a.372.372,0,0,0,.372.332h2.762A.375.375,0,0,0,29.8,35.1l.173-1.493a5.856,5.856,0,0,0,1.92-1.11l1.384.6a.373.373,0,0,0,.47-.159l1.384-2.393a.375.375,0,0,0-.1-.487l-1.191-.885a5.648,5.648,0,0,0,0-2.243l1.188-.885a.374.374,0,0,0,.1-.487l-1.381-2.393A.373.373,0,0,0,33.275,23l-1.381.6a5.867,5.867,0,0,0-1.92-1.11L29.8,21a.372.372,0,0,0-.372-.332Zm1.381,4.8a2.583,2.583,0,1,1-2.583,2.583A2.583,2.583,0,0,1,28.048,25.464Z" transform="translate(282.695 179.571)" fill="#7a7c7d"/></g></g></svg>