<svg xmlns="http://www.w3.org/2000/svg" xmlns:xlink="http://www.w3.org/1999/xlink" width="16" height="16" viewBox="0 0 16 16"><defs><clipPath id="a"><rect width="16" height="16" transform="translate(43 136)" fill="#fff"/></clipPath></defs><g transform="translate(-43 -136)" clip-path="url(#a)"><path d="M6.737,1.684v.842H3.368V4.211h.842V17.684H16V4.211h.842V2.526H13.474V1.684ZM5.895,4.211H7.579V5.895H5.895Zm3.368,0h1.684V5.895H9.263Zm3.368,0h1.684V5.895H12.632ZM5.895,7.579H7.579V9.263H5.895Zm3.368,0h1.684V9.263H9.263Zm3.368,0h1.684V9.263H12.632ZM5.895,10.947H7.579v1.684H5.895Zm3.368,0h1.684v1.684H9.263Zm3.368,0h1.684v1.684H12.632ZM5.895,14.316H7.579V16H5.895Zm3.368,0h1.684V16H9.263Zm3.368,0h1.684V16H12.632Z" transform="translate(40.895 134.316)" fill="#c8dbee"/></g></svg>