<svg xmlns="http://www.w3.org/2000/svg" xmlns:xlink="http://www.w3.org/1999/xlink" width="56" height="56" viewBox="0 0 56 56"><defs><clipPath id="a"><rect width="31" height="31" transform="translate(287 184)" fill="#091f36"/></clipPath></defs><g transform="translate(-274 -171)"><rect width="56" height="56" rx="4" transform="translate(274 171)" fill="#fafafa"/><path d="M4,1A3,3,0,0,0,1,4V52a3,3,0,0,0,3,3H52a3,3,0,0,0,3-3V4a3,3,0,0,0-3-3H4M4,0H52a4,4,0,0,1,4,4V52a4,4,0,0,1-4,4H4a4,4,0,0,1-4-4V4A4,4,0,0,1,4,0Z" transform="translate(274 171)" fill="#e0e6ec"/><g clip-path="url(#a)"><path d="M31,4.895,29.368,8.158,17.947,13.053V26.105L29.368,31,31,34.263h3.263V22.4a3.256,3.256,0,0,0,0-5.644V4.895ZM8.158,13.053a3.273,3.273,0,0,0-3.263,3.263v6.526a3.273,3.273,0,0,0,3.263,3.263h3.263v8.158h3.263V13.053Z" transform="translate(282.105 179.921)" fill="#7a7c7d"/></g></g></svg>