<svg xmlns="http://www.w3.org/2000/svg" xmlns:xlink="http://www.w3.org/1999/xlink" width="56" height="56" viewBox="0 0 56 56"><defs><clipPath id="a"><rect width="31" height="31" transform="translate(287 184)" fill="#091f36"/></clipPath></defs><g transform="translate(-274 -171)"><rect width="56" height="56" rx="4" transform="translate(274 171)" fill="#fafafa"/><path d="M4,1A3,3,0,0,0,1,4V52a3,3,0,0,0,3,3H52a3,3,0,0,0,3-3V4a3,3,0,0,0-3-3H4M4,0H52a4,4,0,0,1,4,4V52a4,4,0,0,1-4,4H4a4,4,0,0,1-4-4V4A4,4,0,0,1,4,0Z" transform="translate(274 171)" fill="#e0e6ec"/><g clip-path="url(#a)"><path d="M18.6,3.1V6.061L9.3,3.124V18.6H7.75V15.5H4.65v3.1H3.1V34.1h31V12.4H27.9V9l-1.55-.49V3.1h-3.1V7.532l-1.55-.49V3.1ZM12.4,7.353l12.4,3.917V31H21.7V29.029a3.1,3.1,0,1,0-3.1,0V31H15.5V18.6H12.4ZM13.95,12.4v3.1h9.3V12.4ZM27.9,15.5H31v3.1H27.9ZM17.05,17.05v3.1h6.2v-3.1ZM6.2,21.7h6.2v3.1H6.2Zm21.7,0H31v3.1H27.9ZM6.2,27.9h6.2V31H6.2Zm21.7,0H31V31H27.9Z" transform="translate(283.9 180.9)" fill="#7a7c7d"/></g></g></svg>