<svg xmlns="http://www.w3.org/2000/svg" xmlns:xlink="http://www.w3.org/1999/xlink" width="56" height="56" viewBox="0 0 56 56"><defs><clipPath id="a"><rect width="31" height="31" transform="translate(287 184)" fill="#7a7c7d"/></clipPath></defs><g transform="translate(-274 -171)"><rect width="56" height="56" rx="4" transform="translate(274 171)" fill="#fafafa"/><path d="M4,1A3,3,0,0,0,1,4V52a3,3,0,0,0,3,3H52a3,3,0,0,0,3-3V4a3,3,0,0,0-3-3H4M4,0H52a4,4,0,0,1,4,4V52a4,4,0,0,1-4,4H4a4,4,0,0,1-4-4V4A4,4,0,0,1,4,0Z" transform="translate(274 171)" fill="#e0e6ec"/><g clip-path="url(#a)"><path d="M10.348,5.636a4.831,4.831,0,0,0-4.712,4.932A4.831,4.831,0,0,0,10.348,15.5c3.523,0,9.379-4.932,9.379-4.932S13.871,5.636,10.348,5.636Zm12.682,0a4.65,4.65,0,0,0-4.1,2.51c.881.65,1.53,1.167,1.717,1.321l1.277,1.1-1.277,1.1c-.187.154-.837.672-1.717,1.321a4.657,4.657,0,0,0,4.1,2.51c3.523,0,9.379-4.932,9.379-4.932S26.553,5.636,23.03,5.636ZM10.568,18.318a9.8,9.8,0,0,0-9.159,5.636v2.818H19.727V23.955A9.8,9.8,0,0,0,10.568,18.318Zm12.55,0A10.291,10.291,0,0,0,18.054,19.6,13.671,13.671,0,0,1,21,23.382l.132.308v3.082H32.409V23.955A10.33,10.33,0,0,0,23.118,18.318Z" transform="translate(285.591 183.295)" fill="#7a7c7d"/></g></g></svg>