<svg xmlns="http://www.w3.org/2000/svg" xmlns:xlink="http://www.w3.org/1999/xlink" width="16" height="16" viewBox="0 0 16 16"><defs><clipPath id="a"><rect width="16" height="16" transform="translate(43 136)" fill="#fff"/></clipPath></defs><g transform="translate(-43 -136)" clip-path="url(#a)"><path d="M8.392,1.6a.8.8,0,0,0-.784.647L7.341,3.619a6.386,6.386,0,0,0-1.8,1.033L4.228,4.2a.8.8,0,0,0-.953.356L2.069,6.645a.8.8,0,0,0,.167,1l1.055.917a5.93,5.93,0,0,0,0,2.066l-1.055.917a.8.8,0,0,0-.167,1l1.206,2.091A.8.8,0,0,0,4.228,15l1.316-.453a6.389,6.389,0,0,0,1.8,1.031l.267,1.372a.8.8,0,0,0,.784.647h2.416a.8.8,0,0,0,.784-.647l.267-1.372a6.386,6.386,0,0,0,1.8-1.033L14.972,15a.8.8,0,0,0,.953-.356l1.206-2.092a.8.8,0,0,0-.167-1l-1.055-.917a5.929,5.929,0,0,0,0-2.066l1.055-.917a.8.8,0,0,0,.167-1L15.925,4.555a.8.8,0,0,0-.953-.358l-1.316.453a6.387,6.387,0,0,0-1.8-1.031l-.267-1.372a.8.8,0,0,0-.784-.647ZM9.6,6.4A3.2,3.2,0,1,1,6.4,9.6,3.2,3.2,0,0,1,9.6,6.4Z" transform="translate(41.4 134.4)" fill="#c8dbee"/></g></svg>