<svg xmlns="http://www.w3.org/2000/svg" xmlns:xlink="http://www.w3.org/1999/xlink" width="13" height="13" viewBox="0 0 13 13"><defs><clipPath id="a"><rect width="13" height="13" transform="translate(43 138)" fill="#c8dbee"/></clipPath></defs><g transform="translate(-43 -138)" clip-path="url(#a)"><path d="M2.955.591A1.185,1.185,0,0,0,1.773,1.773V9.455a.591.591,0,0,0,1.182,0V1.773h6.5a.591.591,0,0,0,0-1.182ZM5.318,2.955A1.185,1.185,0,0,0,4.136,4.136v8.273a1.185,1.185,0,0,0,1.182,1.182h6.5A1.185,1.185,0,0,0,13,12.409V6.4a1.182,1.182,0,0,0-.346-.836L10.392,3.3a1.182,1.182,0,0,0-.836-.346ZM7.091,7.682h2.955a.591.591,0,0,1,0,1.182H7.091a.591.591,0,1,1,0-1.182Zm0,2.364h2.955a.591.591,0,0,1,0,1.182H7.091a.591.591,0,1,1,0-1.182Z" transform="translate(42.114 137.409)" fill="#c8dbee"/></g></svg>