<svg xmlns="http://www.w3.org/2000/svg" xmlns:xlink="http://www.w3.org/1999/xlink" width="16" height="16" viewBox="0 0 16 16"><defs><clipPath id="a"><rect width="16" height="16" transform="translate(43 136)" fill="#fff"/></clipPath></defs><g transform="translate(-43 -136)" clip-path="url(#a)"><path d="M9.143,2.286A3.048,3.048,0,1,0,12.19,5.333,3.048,3.048,0,0,0,9.143,2.286Zm0,8.381c-2.393,0-6.857,1.177-6.857,3.429V16H9.368a5.255,5.255,0,0,1-.168-.762h0a5.344,5.344,0,0,1-.061-.762,5.4,5.4,0,0,1,1.488-3.69A10.432,10.432,0,0,0,9.143,10.667Zm4.621,0a.193.193,0,0,0-.192.171l-.089.771a3.022,3.022,0,0,0-.991.573l-.714-.31a.191.191,0,0,0-.243.082l-.714,1.235a.193.193,0,0,0,.052.252l.615.455a3.11,3.11,0,0,0-.058.58,3.025,3.025,0,0,0,.058.579l-.613.457a.193.193,0,0,0-.052.252L11.534,17a.193.193,0,0,0,.244.08l.713-.308a3.028,3.028,0,0,0,.991.573l.089.771a.192.192,0,0,0,.192.171h1.426a.193.193,0,0,0,.192-.171l.089-.771a3.022,3.022,0,0,0,.991-.573l.714.31A.192.192,0,0,0,17.418,17l.714-1.235a.193.193,0,0,0-.052-.252l-.615-.457a2.915,2.915,0,0,0,0-1.158l.613-.457a.193.193,0,0,0,.052-.252l-.713-1.235a.193.193,0,0,0-.244-.08l-.713.308a3.028,3.028,0,0,0-.991-.573l-.089-.771a.192.192,0,0,0-.192-.171Zm.713,2.476a1.333,1.333,0,1,1-1.333,1.333A1.333,1.333,0,0,1,14.476,13.143Z" transform="translate(40.778 133.714)" fill="#c8dbee"/></g></svg>