<svg xmlns="http://www.w3.org/2000/svg" xmlns:xlink="http://www.w3.org/1999/xlink" width="56" height="56" viewBox="0 0 56 56"><defs><clipPath id="a"><rect width="31" height="31" transform="translate(287 184)" fill="#091f36"/></clipPath></defs><g transform="translate(-274 -171)"><rect width="56" height="56" rx="4" transform="translate(274 171)" fill="#fafafa"/><path d="M4,1A3,3,0,0,0,1,4V52a3,3,0,0,0,3,3H52a3,3,0,0,0,3-3V4a3,3,0,0,0-3-3H4M4,0H52a4,4,0,0,1,4,4V52a4,4,0,0,1-4,4H4a4,4,0,0,1-4-4V4A4,4,0,0,1,4,0Z" transform="translate(274 171)" fill="#e0e6ec"/><g clip-path="url(#a)"><path d="M10.568,1.409A3.524,3.524,0,0,0,7.045,4.932V28.886a3.524,3.524,0,0,0,3.523,3.523H23.25a3.524,3.524,0,0,0,3.523-3.523V22.545H23.955v2.818H9.864V5.636H26.773v-.7A3.524,3.524,0,0,0,23.25,1.409Zm7.75,7.045a1.4,1.4,0,0,0-1.263.806l6.9,4.324,6.913-4.3a1.407,1.407,0,0,0-1.277-.828Zm-1.409,3.886v5.978a1.41,1.41,0,0,0,1.409,1.409H29.591A1.41,1.41,0,0,0,31,18.318V12.371l-7.045,4.387Zm0,14.256a1.585,1.585,0,1,1-1.585,1.585A1.584,1.584,0,0,1,16.909,26.6Z" transform="translate(283.477 182.591)" fill="#7a7c7d"/></g></g></svg>