<svg xmlns="http://www.w3.org/2000/svg" xmlns:xlink="http://www.w3.org/1999/xlink" width="56" height="56" viewBox="0 0 56 56"><defs><clipPath id="a"><rect width="31" height="31" transform="translate(287 184)" fill="#091f36"/></clipPath></defs><g transform="translate(-274 -171)"><rect width="56" height="56" rx="4" transform="translate(274 171)" fill="#fafafa"/><path d="M4,1A3,3,0,0,0,1,4V52a3,3,0,0,0,3,3H52a3,3,0,0,0,3-3V4a3,3,0,0,0-3-3H4M4,0H52a4,4,0,0,1,4,4V52a4,4,0,0,1-4,4H4a4,4,0,0,1-4-4V4A4,4,0,0,1,4,0Z" transform="translate(274 171)" fill="#e0e6ec"/><g clip-path="url(#a)"><path d="M17.714,4.429a5.9,5.9,0,1,0,5.9,5.9,5.9,5.9,0,0,0-5.9-5.9ZM20.667,19.19a2.955,2.955,0,0,0-2.952,2.952V32.476a2.955,2.955,0,0,0,2.952,2.952h11.81a2.955,2.955,0,0,0,2.952-2.952V22.143a2.955,2.955,0,0,0-2.952-2.952Zm-5.9,1.715c-4.628.689-10.333,2.862-10.333,6.4V31H14.762Zm8.857,2.713h5.9v2.952h-5.9Z" transform="translate(282.571 179.571)" fill="#7a7c7d"/></g></g></svg>