<svg xmlns="http://www.w3.org/2000/svg" xmlns:xlink="http://www.w3.org/1999/xlink" width="16" height="16" viewBox="0 0 16 16"><defs><clipPath id="a"><rect width="16" height="16" transform="translate(43 136)" fill="#fff"/></clipPath></defs><g transform="translate(-43 -136)" clip-path="url(#a)"><path d="M10.4,1.6a.723.723,0,0,0-.722.664l-.013.152a.67.67,0,0,0,.009.075,3.183,3.183,0,0,0-1.6.928c-.022-.014-.037-.035-.061-.047l-.136-.064A.724.724,0,0,0,7.15,4.556l.125.088a.674.674,0,0,0,.077.033A3.166,3.166,0,0,0,7.2,5.6a3.166,3.166,0,0,0,.152.923.672.672,0,0,0-.077.033l-.125.086a.725.725,0,0,0,.723,1.25l.136-.064c.024-.011.039-.033.061-.047a3.182,3.182,0,0,0,1.6.928.67.67,0,0,0-.009.075l.014.152a.724.724,0,0,0,1.444,0l.013-.152a.689.689,0,0,0-.009-.075,3.182,3.182,0,0,0,1.6-.928c.022.014.037.035.061.047l.136.066a.725.725,0,0,0,.723-1.25l-.125-.088a.674.674,0,0,0-.077-.033A3.165,3.165,0,0,0,13.6,5.6a3.165,3.165,0,0,0-.152-.923.672.672,0,0,0,.077-.033l.125-.086a.725.725,0,0,0-.723-1.25l-.136.064c-.024.011-.039.033-.061.047a3.183,3.183,0,0,0-1.6-.928.67.67,0,0,0,.009-.075l-.014-.152A.724.724,0,0,0,10.4,1.6Zm0,2.8A1.2,1.2,0,1,1,9.2,5.6,1.2,1.2,0,0,1,10.4,4.4Zm6.069,5.2a1.128,1.128,0,0,0-.8.331L12,13.6H8.8a.4.4,0,0,1,0-.8h1.6A1.6,1.6,0,0,0,12,11.2v-.8H6.925a3.2,3.2,0,0,0-2.262.938L1.6,14.4l3.2,3.2L6.4,16h5.738a1.6,1.6,0,0,0,1.131-.469l4-4a1.131,1.131,0,0,0-.8-1.931Z" transform="translate(41.4 134.4)" fill="#c8dbee"/></g></svg>