<svg xmlns="http://www.w3.org/2000/svg" xmlns:xlink="http://www.w3.org/1999/xlink" width="56" height="56" viewBox="0 0 56 56"><defs><clipPath id="a"><rect width="31" height="31" transform="translate(287 184)" fill="#091f36"/></clipPath></defs><g transform="translate(-274 -171)"><rect width="56" height="56" rx="4" transform="translate(274 171)" fill="#fafafa"/><path d="M4,1A3,3,0,0,0,1,4V52a3,3,0,0,0,3,3H52a3,3,0,0,0,3-3V4a3,3,0,0,0-3-3H4M4,0H52a4,4,0,0,1,4,4V52a4,4,0,0,1-4,4H4a4,4,0,0,1-4-4V4A4,4,0,0,1,4,0Z" transform="translate(274 171)" fill="#e0e6ec"/><g clip-path="url(#a)"><path d="M19.86,4.895,4.219,20.535a3.263,3.263,0,0,0,0,4.614l9.79,9.79a3.263,3.263,0,0,0,4.614,0L34.264,19.3V4.895Zm5.293,14.838-2-2c1.457-1.455,1.067-2.3.808-2.563-.142-.142-.837-.764-2.031.432-2.085,2.085,2.232,5.1-1.167,8.5a3.754,3.754,0,0,1-5.233.46l-1.41,1.41-1.064-1.062,1.41-1.41c-.286-.375-2.266-2.846.8-5.911l2,2c-1.811,1.811-.8,2.671-.659,2.813s.95.891,2.133-.292c2.364-2.364-2.353-4.981,1.189-8.525a3.8,3.8,0,0,1,5.224-.48l1.516-1.516,1.069,1.069L26.194,14.2C26.468,14.608,27.94,16.946,25.153,19.733Z" transform="translate(283.736 179.105)" fill="#7a7c7d"/></g></g></svg>