<svg xmlns="http://www.w3.org/2000/svg" xmlns:xlink="http://www.w3.org/1999/xlink" width="37" height="37" viewBox="0 0 37 37"><defs><clipPath id="a"><rect width="37" height="37" transform="translate(347 351)" fill="#7a7c7d" stroke="#e0e6ec" stroke-width="1"/></clipPath></defs><g transform="translate(-347 -351)" clip-path="url(#a)"><path d="M20.154.822A1.261,1.261,0,0,0,18.913,2.1V3.444a10.434,10.434,0,0,0-4.57,1.692l-.868-1.011a1.261,1.261,0,1,0-1.912,1.643l.875,1.019a10.49,10.49,0,0,0-2.372,4.252l-1.32-.2a1.261,1.261,0,1,0-.382,2.492l1.32.2c0,.113-.016.223-.016.337a11.886,11.886,0,0,0,.8,4.485L9.3,18.747a1.261,1.261,0,1,0,.8,2.39l1.144-.384a22.071,22.071,0,0,1,.494,2.489l.013,1.133h-.575a1.134,1.134,0,0,0-.409,0H8.825a1.261,1.261,0,1,0,0,2.522H9.845L10.6,33.71A4.638,4.638,0,0,0,15.2,37.822h9.953a4.64,4.64,0,0,0,4.595-4.112L30.5,26.9h1.019a1.261,1.261,0,1,0,0-2.522H29.572a1.261,1.261,0,0,0-.4,0H28.6l.023-1.136a22.069,22.069,0,0,1,.481-2.48l1.149.379a1.261,1.261,0,1,0,.79-2.4l-1.172-.386a11.939,11.939,0,0,0,.8-4.488c0-.112-.013-.222-.016-.333l1.32-.2a1.261,1.261,0,1,0-.381-2.494l-1.322.2a10.491,10.491,0,0,0-2.37-4.252l.875-1.018a1.261,1.261,0,1,0-1.912-1.643L26,5.138a10.434,10.434,0,0,0-4.569-1.692V2.1A1.261,1.261,0,0,0,20.154.822Zm-.13,5.069a1.261,1.261,0,0,0,.305,0,7.955,7.955,0,0,1,4.892,1.783,1.261,1.261,0,0,0,.271.241,7.939,7.939,0,0,1,2.548,4.628,1.261,1.261,0,0,0,.031.212,8.079,8.079,0,0,1,.085,1.113,8.776,8.776,0,0,1-.675,3.694c-.106.292-.224.61-.345.964a1.261,1.261,0,0,0-.158.5,22.74,22.74,0,0,0-.862,3.912l-.01.072-.028,1.361H14.274l-.016-1.358-.012-.08a22.785,22.785,0,0,0-.888-3.945,1.261,1.261,0,0,0-.144-.456c-.123-.358-.242-.679-.35-.973a8.724,8.724,0,0,1-.676-3.694,8.072,8.072,0,0,1,.085-1.11,1.262,1.262,0,0,0,.029-.2,7.937,7.937,0,0,1,2.421-4.529,1.261,1.261,0,0,0,.514-.442A7.948,7.948,0,0,1,20.024,5.892ZM17.23,10.086a1.261,1.261,0,1,0,1.261,1.261A1.261,1.261,0,0,0,17.23,10.086Zm6.724,4.2a1.261,1.261,0,1,0,1.261,1.261A1.261,1.261,0,0,0,23.954,14.288Zm-5.883,5.043a1.261,1.261,0,1,0,1.261,1.261A1.261,1.261,0,0,0,18.071,19.331ZM12.383,26.9h15.58l-.726,6.535a2.087,2.087,0,0,1-2.088,1.87H15.2a2.084,2.084,0,0,1-2.088-1.868Z" transform="translate(345.325 350.178)" fill="#113d6b"/></g></svg>