<svg xmlns="http://www.w3.org/2000/svg" xmlns:xlink="http://www.w3.org/1999/xlink" width="37" height="37" viewBox="0 0 37 37"><defs><clipPath id="a"><rect width="37" height="37" transform="translate(347 351)" fill="#7a7c7d" stroke="#e0e6ec" stroke-width="1"/></clipPath></defs><g transform="translate(-347 -351)" clip-path="url(#a)"><path d="M18.5,3.7l0,0h-.06a1.388,1.388,0,0,0-.22.027l-4.163.856a1.388,1.388,0,0,0-.724.4A40.116,40.116,0,0,0,6.112,16.111,1.388,1.388,0,0,0,6.835,17.9l3.7,1.65a1.388,1.388,0,0,0,1.664-.421,24.177,24.177,0,0,1,1.736-1.973c.285-.288.574-.506.867-.755.023,1.507.052,2.866,0,4-2.444,2.452-4.244,6.285-5.576,9.691a70.707,70.707,0,0,0-2.246,6.732,1.388,1.388,0,0,0,.842,1.651A43.8,43.8,0,0,0,22.2,40.7a43.882,43.882,0,0,0,14.374-2.229,1.388,1.388,0,0,0,.844-1.653,70.781,70.781,0,0,0-2.246-6.73C33.84,26.681,32.04,22.848,29.6,20.4c-.05-1.135-.021-2.493,0-4,.293.25.582.467.867.755A24.187,24.187,0,0,1,32.2,19.124a1.388,1.388,0,0,0,1.664.421l3.7-1.648a1.388,1.388,0,0,0,.71-1.816C35.469,9.556,33.506,6.472,30.8,4.77a1.388,1.388,0,0,0-.461-.184L26.18,3.729A1.388,1.388,0,0,0,25.9,3.7Zm-.517,2.911,3.169,3.664a1.388,1.388,0,0,0,2.1,0l3.169-3.664,3.048.627c1.7,1.132,3.359,3.648,5.644,8.716l-1.445.643a14.454,14.454,0,0,0-1.229-1.4,13.809,13.809,0,0,0-1.852-1.608,3.992,3.992,0,0,0-2.372-.907,1.388,1.388,0,0,0-1.386,1.351s-.147,4.976,0,6.985a1.388,1.388,0,0,0,.461.932c1.928,1.718,3.939,5.674,5.3,9.144a46.828,46.828,0,0,1,1.716,5.14A29.473,29.473,0,0,1,29.97,37.3c-.449-1.1-1.253-3.071-2.121-5.2a.4.4,0,0,0-.777.19c.2,2.155.355,3.881.488,5.339-1.133.126-2.4.215-3.8.257-.25-1.926-.722-5.561-1.156-8.9a.4.4,0,0,0-.8,0c-.434,3.343-.908,6.978-1.158,8.9-1.439-.042-2.732-.137-3.886-.267.091-.892.308-3.008.535-5.229a.4.4,0,0,0-.777-.2L14.43,37.3A29.461,29.461,0,0,1,10.1,36.236,46.671,46.671,0,0,1,11.814,31.1c1.357-3.47,3.368-7.426,5.3-9.144a1.388,1.388,0,0,0,.461-.93c.153-2.014,0-6.987,0-6.987a1.388,1.388,0,0,0-1.388-1.351,3.986,3.986,0,0,0-2.37.907A13.8,13.8,0,0,0,11.964,15.2a14.4,14.4,0,0,0-1.229,1.4l-1.391-.62A41.585,41.585,0,0,1,15.1,7.2Z" transform="translate(343.3 347.3)" fill="#113d6b"/></g></svg>