<svg xmlns="http://www.w3.org/2000/svg" xmlns:xlink="http://www.w3.org/1999/xlink" width="16" height="16" viewBox="0 0 16 16"><defs><clipPath id="a"><rect width="16" height="16" transform="translate(43 136)" fill="#fff"/></clipPath></defs><g transform="translate(-43 -136)" clip-path="url(#a)"><path d="M7.2,1.6h-4A1.6,1.6,0,0,0,1.6,3.2V8.8a1.6,1.6,0,0,0,1.6,1.6h4A1.6,1.6,0,0,0,8.8,8.8V3.2A1.6,1.6,0,0,0,7.2,1.6Zm8.8,0H12a1.6,1.6,0,0,0-1.6,1.6V5.6A1.6,1.6,0,0,0,12,7.2h4a1.6,1.6,0,0,0,1.6-1.6V3.2A1.6,1.6,0,0,0,16,1.6ZM7.2,12h-4a1.6,1.6,0,0,0-1.6,1.6V16a1.6,1.6,0,0,0,1.6,1.6h4A1.6,1.6,0,0,0,8.8,16V13.6A1.6,1.6,0,0,0,7.2,12ZM16,8.8H12a1.6,1.6,0,0,0-1.6,1.6V16A1.6,1.6,0,0,0,12,17.6h4A1.6,1.6,0,0,0,17.6,16V10.4A1.6,1.6,0,0,0,16,8.8Z" transform="translate(41.4 134.4)" fill="#c8dbee"/></g></svg>