<svg xmlns="http://www.w3.org/2000/svg" xmlns:xlink="http://www.w3.org/1999/xlink" width="37" height="37" viewBox="0 0 37 37"><defs><clipPath id="a"><rect width="37" height="37" transform="translate(347 351)" fill="#7a7c7d" stroke="#e0e6ec" stroke-width="1"/></clipPath></defs><g transform="translate(-347 -351)" clip-path="url(#a)"><path d="M19.377,1.328q-.688.014-1.368.087A16.273,16.273,0,0,0,4.365,12.038c-1.488,4.283-1.37,8.4-1.254,12.342S3.343,32.093,2.094,35.9a1.208,1.208,0,1,0,2.3.753c1.409-4.3,1.252-8.413,1.136-12.348s-.2-7.688,1.122-11.478a13.75,13.75,0,0,1,20.784-6.6c2.54,1.8,3.611,3.694,4.62,6.6,1.305,3.756,1.04,7.481.722,11.417s-.69,8.078.73,12.409a1.208,1.208,0,1,0,2.3-.753c-1.238-3.776-.936-7.52-.618-11.462s.652-8.087-.848-12.4a14.652,14.652,0,0,0-5.5-7.774A15.669,15.669,0,0,0,19.377,1.328ZM16.021,5.919a2.406,2.406,0,0,0-1.15.378,8.825,8.825,0,0,0-2.724,3.448c-2.133,3.762-2.808,9.669-3.1,15.16S8.925,35.521,8.879,37.05a1.208,1.208,0,1,0,2.414.072c.021-.687.01-1.9,0-3.3.55.453,1.171.942,1.883,1.441,1.847,1.294,3.987,2.628,6.171,2.628s4.324-1.334,6.171-2.628c.712-.5,1.332-.988,1.881-1.441-.008,1.4-.019,2.613,0,3.3a1.208,1.208,0,1,0,2.414-.072c-.046-1.529.127-6.654-.165-12.145s-.968-11.4-3.1-15.159v0A8.818,8.818,0,0,0,23.827,6.3h0a2.336,2.336,0,0,0-1.546-.363A2.572,2.572,0,0,0,21,6.526a6.086,6.086,0,0,0-1.486,2.009c-.1.185-.081.251-.167.436-.085-.185-.07-.251-.165-.436A6.082,6.082,0,0,0,17.7,6.526a2.572,2.572,0,0,0-1.279-.593A2.021,2.021,0,0,0,16.021,5.919Zm.12,2.455c.017.011-.005,0,.024.019a4.705,4.705,0,0,1,.871,1.249,15.132,15.132,0,0,1,.812,1.961,7.219,7.219,0,0,0-1.716-.269,7.092,7.092,0,0,0-2.245.321c.117-.253.236-.5.362-.719A7.86,7.86,0,0,1,16.14,8.374Zm6.418,0a7.848,7.848,0,0,1,1.892,2.562c.11.194.215.4.318.618a9.267,9.267,0,0,0-3.909.028,15.217,15.217,0,0,1,.8-1.941,4.707,4.707,0,0,1,.871-1.249C22.564,8.369,22.541,8.385,22.558,8.374ZM16.12,12.92a7.683,7.683,0,0,1,2.9.739.805.805,0,0,0,.68-.011,7.431,7.431,0,0,1,5.763-.266,42.063,42.063,0,0,1,1.527,8.4h-1.2a4.318,4.318,0,0,0-3.341,1.332.4.4,0,0,0,.511.584c.124-.026.279-.051.428-.075a1.208,1.208,0,1,0,2.341-.211c.306-.01.614-.019.967-.019h.433c.04.548.08,1.1.109,1.637.1,1.97.138,3.811.153,5.526a1.208,1.208,0,0,0-.175.2c.092-.133-.043.046-.209.206s-.4.377-.689.623c-.571.492-1.342,1.107-2.186,1.7-1.69,1.184-3.784,2.191-4.783,2.191s-3.1-1.007-4.785-2.191c-.845-.592-1.614-1.207-2.185-1.7-.286-.246-.522-.462-.689-.623s-.3-.339-.209-.206a1.208,1.208,0,0,0-.176-.2c.014-1.714.048-3.551.153-5.52.029-.542.068-1.09.108-1.637H12c.356,0,.661.01.969.02a1.207,1.207,0,1,0,2.339.211c.21.036.4.074.566.112a.354.354,0,0,0,.475-.5,4.282,4.282,0,0,0-3.443-1.449H11.7A43.588,43.588,0,0,1,13.128,13.7a.806.806,0,0,0,.164-.068A5.464,5.464,0,0,1,16.12,12.92Zm3.229,1.606a.646.646,0,0,0-.577.357l-.889,1.779a.644.644,0,0,0,0,.577l.889,1.779a.644.644,0,0,0,1.153,0c.319-.638.691-1.38.89-1.779a.644.644,0,0,0,0-.577c-.2-.4-.571-1.141-.89-1.779A.645.645,0,0,0,19.349,14.526Zm.958,12.9c-.559,0-1.36,0-1.919.024a.361.361,0,0,0-.33.212.365.365,0,0,0,.055.39c.31.453.772.985,1.235.985s.926-.532,1.254-.969a.388.388,0,0,0-.294-.642Zm-1.763,3.214a5.741,5.741,0,0,0-1.768.513.425.425,0,0,0-.1.742,5.2,5.2,0,0,0,2.673,1.161,5.293,5.293,0,0,0,2.756-1.23.353.353,0,0,0,.138-.334.348.348,0,0,0-.226-.278,7.292,7.292,0,0,0-1.862-.574.751.751,0,0,0-.628.4.187.187,0,0,1-.311-.019A.7.7,0,0,0,18.544,30.643Z" transform="translate(346.554 349.675)" fill="#113d6b"/></g></svg>