<svg xmlns="http://www.w3.org/2000/svg" xmlns:xlink="http://www.w3.org/1999/xlink" width="56" height="56" viewBox="0 0 56 56"><defs><clipPath id="a"><rect width="31" height="31" transform="translate(287 184)" fill="#091f36"/></clipPath></defs><g transform="translate(-274 -171)"><rect width="56" height="56" rx="4" transform="translate(274 171)" fill="#fafafa"/><path d="M4,1A3,3,0,0,0,1,4V52a3,3,0,0,0,3,3H52a3,3,0,0,0,3-3V4a3,3,0,0,0-3-3H4M4,0H52a4,4,0,0,1,4,4V52a4,4,0,0,1-4,4H4a4,4,0,0,1-4-4V4A4,4,0,0,1,4,0Z" transform="translate(274 171)" fill="#e0e6ec"/><g clip-path="url(#a)"><path d="M31,4.65H6.2a3.1,3.1,0,0,0-3.084,3.1L3.1,26.348a3.1,3.1,0,0,0,3.1,3.1H9.3v6.2l6.2-6.2H31a3.109,3.109,0,0,0,3.1-3.1V7.75A3.109,3.109,0,0,0,31,4.65ZM23.642,24.123,18.6,21.082l-5.042,3.04,1.336-5.735-4.448-3.849,5.865-.5L18.6,8.623l2.289,5.4,5.865.5-4.447,3.85Z" transform="translate(283.899 179.35)" fill="#7a7c7d"/></g></g></svg>