<svg xmlns="http://www.w3.org/2000/svg" xmlns:xlink="http://www.w3.org/1999/xlink" width="16" height="16" viewBox="0 0 16 16"><defs><clipPath id="a"><rect width="16" height="16" transform="translate(1274 353)" fill="#f66"/></clipPath></defs><g transform="translate(-1274 -353)" clip-path="url(#a)"><path d="M3.06,2.031,2.031,3.06,3.692,4.72A10.671,10.671,0,0,0,.727,8.727s2.182,5.818,8,5.818a7.718,7.718,0,0,0,3.813-.977l1.855,1.855,1.028-1.028Zm5.668.878a7.847,7.847,0,0,0-2.388.372L8.2,5.143a3.575,3.575,0,0,1,.526-.053,3.637,3.637,0,0,1,3.636,3.636,3.575,3.575,0,0,1-.053.526l2.494,2.494a10.717,10.717,0,0,0,1.922-3.02S14.545,2.909,8.727,2.909ZM5.7,6.726,6.761,7.79a2.144,2.144,0,0,0-.216.938,2.182,2.182,0,0,0,2.182,2.182,2.144,2.144,0,0,0,.938-.216l1.064,1.064A3.629,3.629,0,0,1,5.7,6.726Z" transform="translate(1273.273 352.273)" fill="#f66"/></g></svg>