<svg xmlns="http://www.w3.org/2000/svg" xmlns:xlink="http://www.w3.org/1999/xlink" width="56" height="56" viewBox="0 0 56 56"><defs><clipPath id="a"><rect width="31" height="31" transform="translate(287 184)" fill="#091f36"/></clipPath></defs><g transform="translate(-274 -171)"><rect width="56" height="56" rx="4" transform="translate(274 171)" fill="#fafafa"/><path d="M4,1A3,3,0,0,0,1,4V52a3,3,0,0,0,3,3H52a3,3,0,0,0,3-3V4a3,3,0,0,0-3-3H4M4,0H52a4,4,0,0,1,4,4V52a4,4,0,0,1-4,4H4a4,4,0,0,1-4-4V4A4,4,0,0,1,4,0Z" transform="translate(274 171)" fill="#e0e6ec"/><g clip-path="url(#a)"><path d="M4.65,4.65l1.066,7.6,2.131-2.18,6.1,6.1V27.9h3.1V14.87l-.436-.484L10.075,7.847l2.18-2.131Zm27.9,0-7.6,1.066,2.18,2.131-6.539,6.539-.436.484V27.9h3.1V16.178l6.1-6.1,2.131,2.18ZM3.1,17.05v3.1H4.65v9.3A4.675,4.675,0,0,0,9.3,34.1H27.9a4.675,4.675,0,0,0,4.65-4.65v-9.3H34.1v-3.1H29.45v12.4A1.545,1.545,0,0,1,27.9,31H9.3a1.545,1.545,0,0,1-1.55-1.55V17.05Z" transform="translate(283.9 180.125)" fill="#7a7c7d"/></g></g></svg>