<svg xmlns="http://www.w3.org/2000/svg" xmlns:xlink="http://www.w3.org/1999/xlink" width="37" height="37" viewBox="0 0 37 37"><defs><clipPath id="a"><rect width="37" height="37" transform="translate(347 351)" fill="#7a7c7d" stroke="#e0e6ec" stroke-width="1"/></clipPath></defs><g transform="translate(-347 -351)" clip-path="url(#a)"><path d="M16.79,6.167A6.694,6.694,0,0,0,10.3,11.277l-.753,3.111H7.708a1.542,1.542,0,1,0,0,3.083H8.8L8.357,19.3a4.567,4.567,0,0,0-2.19,3.824V40.083a2.055,2.055,0,0,0,2.056,2.056h2.056a2.055,2.055,0,0,0,2.056-2.056V38.027H37v2.056a2.055,2.055,0,0,0,2.056,2.056h2.056a2.055,2.055,0,0,0,2.056-2.056V23.125a4.567,4.567,0,0,0-2.19-3.824l-.442-1.829h1.09a1.542,1.542,0,1,0,0-3.083H39.79l-.753-3.111a6.694,6.694,0,0,0-6.494-5.111Zm0,3.083H32.543A3.584,3.584,0,0,1,36.04,12l1.57,6.5H11.723l1.57-6.5A3.584,3.584,0,0,1,16.79,9.25Zm-6,12.333h27.75a1.518,1.518,0,0,1,1.542,1.542V34.944H9.25V23.125A1.518,1.518,0,0,1,10.792,21.583Zm3.6,3.083a2.056,2.056,0,1,0,2.056,2.056A2.056,2.056,0,0,0,14.389,24.666Zm20.555,0A2.056,2.056,0,1,0,37,26.722,2.056,2.056,0,0,0,34.944,24.666ZM21.069,28.778a1.542,1.542,0,1,0,0,3.083h7.194a1.542,1.542,0,1,0,0-3.083Z" transform="translate(340.833 345.348)" fill="#113d6b"/></g></svg>