<svg xmlns="http://www.w3.org/2000/svg" xmlns:xlink="http://www.w3.org/1999/xlink" width="16" height="16" viewBox="0 0 16 16"><defs><clipPath id="a"><rect width="16" height="16" transform="translate(106 16)" fill="#091f36"/></clipPath></defs><g transform="translate(-106 -16)" clip-path="url(#a)"><path d="M10.666,2.667A.946.946,0,0,0,10,2.941L4.722,8.177a.937.937,0,0,0,.668,1.6H15.942a.937.937,0,0,0,.668-1.6L11.335,2.941A.947.947,0,0,0,10.666,2.667ZM5.391,11.555a.936.936,0,0,0-.667,1.6L10,18.392a.951.951,0,0,0,1.337,0l5.274-5.236a.937.937,0,0,0-.667-1.6Z" transform="translate(103.333 13.333)" fill="#7a7c7d"/></g></svg>