<svg xmlns="http://www.w3.org/2000/svg" xmlns:xlink="http://www.w3.org/1999/xlink" width="37" height="37" viewBox="0 0 37 37"><defs><clipPath id="a"><rect width="37" height="37" transform="translate(347 351)" fill="#7a7c7d" stroke="#e0e6ec" stroke-width="1"/></clipPath></defs><g transform="translate(-347 -351)" clip-path="url(#a)"><path d="M23.393,4.916A5.343,5.343,0,0,0,20.076,6.07L8.636,15.084a7.268,7.268,0,0,0-2.787,5.742v16.7a4.392,4.392,0,0,0,4.387,4.387h5.7a3.376,3.376,0,0,1-.341-1.462V38.991H10.235a1.464,1.464,0,0,1-1.462-1.462v-16.7a4.36,4.36,0,0,1,1.674-3.446l11.44-9.015a2.431,2.431,0,0,1,3.016,0L36.345,17.38a4.362,4.362,0,0,1,1.672,3.446v16.7a1.464,1.464,0,0,1-1.462,1.462H32.168v1.462a3.376,3.376,0,0,1-.341,1.462h4.727a4.392,4.392,0,0,0,4.387-4.387v-16.7a7.268,7.268,0,0,0-2.785-5.742L26.713,6.07A5.356,5.356,0,0,0,23.393,4.916ZM14.607,17.533a.975.975,0,0,0-.96.988v8.286a5.372,5.372,0,0,0,3.9,5.154v8.493a1.462,1.462,0,1,0,2.924,0V31.96a5.372,5.372,0,0,0,3.9-5.154V18.521a.975.975,0,1,0-1.95,0v6.336a.475.475,0,0,1-.487.487H20.47a.475.475,0,0,1-.487-.487V18.521a.975.975,0,1,0-1.95,0v6.336a.475.475,0,0,1-.487.487H16.084a.475.475,0,0,1-.487-.487V18.521a.975.975,0,0,0-.99-.988Zm13.773.019a.973.973,0,0,0-1.085.969V40.453a1.462,1.462,0,1,0,2.924,0V35.886L32.4,33.7a2.522,2.522,0,0,0,.742-1.793V31c0-9.715-4.091-13.1-4.265-13.239A.971.971,0,0,0,28.379,17.552Z" transform="translate(342.105 346.084)" fill="#113d6b"/></g></svg>