<svg xmlns="http://www.w3.org/2000/svg" xmlns:xlink="http://www.w3.org/1999/xlink" width="16" height="16" viewBox="0 0 16 16"><defs><clipPath id="a"><rect width="16" height="16" transform="translate(43 136)" fill="#fff"/></clipPath></defs><g transform="translate(-43 -136)" clip-path="url(#a)"><path d="M5.455.727A1.819,1.819,0,0,0,3.636,2.545V14.909a1.819,1.819,0,0,0,1.818,1.818H12a1.819,1.819,0,0,0,1.818-1.818V11.636H12.364v1.455H5.091V2.909h8.727V2.545A1.819,1.819,0,0,0,12,.727Zm4,3.636A.722.722,0,0,0,8.8,4.78l3.561,2.232,3.568-2.22a.726.726,0,0,0-.659-.428ZM8.727,6.369V9.455a.728.728,0,0,0,.727.727h5.818A.728.728,0,0,0,16,9.455V6.385L12.364,8.649Zm0,7.358a.818.818,0,1,1-.818.818A.818.818,0,0,1,8.727,13.727Z" transform="translate(41.182 135.273)" fill="#c8dbee"/></g></svg>