<svg xmlns="http://www.w3.org/2000/svg" xmlns:xlink="http://www.w3.org/1999/xlink" width="56" height="56" viewBox="0 0 56 56"><defs><clipPath id="a"><rect width="31" height="31" transform="translate(287 184)" fill="#091f36"/></clipPath></defs><g transform="translate(-274 -171)"><rect width="56" height="56" rx="4" transform="translate(274 171)" fill="#fafafa"/><path d="M4,1A3,3,0,0,0,1,4V52a3,3,0,0,0,3,3H52a3,3,0,0,0,3-3V4a3,3,0,0,0-3-3H4M4,0H52a4,4,0,0,1,4,4V52a4,4,0,0,1-4,4H4a4,4,0,0,1-4-4V4A4,4,0,0,1,4,0Z" transform="translate(274 171)" fill="#e0e6ec"/><g clip-path="url(#a)"><path d="M24.9,3.1a.393.393,0,0,0-.391.348l-.182,1.568a6.152,6.152,0,0,0-2.016,1.166l-1.453-.627a.388.388,0,0,0-.493.163L18.912,8.231a.392.392,0,0,0,.106.512l1.253.929a5.789,5.789,0,0,0,0,2.355l-1.253.929a.393.393,0,0,0-.106.512l1.453,2.513a.39.39,0,0,0,.493.167l1.453-.63a6.153,6.153,0,0,0,2.016,1.166l.182,1.568a.393.393,0,0,0,.391.348h2.9a.393.393,0,0,0,.391-.348l.182-1.568a6.153,6.153,0,0,0,2.019-1.166l1.45.624a.388.388,0,0,0,.493-.164l1.453-2.513a.392.392,0,0,0-.106-.512l-1.25-.929a5.844,5.844,0,0,0,0-2.352l1.253-.929a.393.393,0,0,0,.106-.512L32.335,5.719a.389.389,0,0,0-.493-.167l-1.453.63a6.152,6.152,0,0,0-2.016-1.166l-.182-1.568A.393.393,0,0,0,27.8,3.1Zm1.45,5.037a2.713,2.713,0,1,1-2.712,2.712A2.713,2.713,0,0,1,26.35,8.137ZM10.95,13.95a.393.393,0,0,0-.391.348l-.269,2.3A7.723,7.723,0,0,0,7,18.479L4.9,17.571a.388.388,0,0,0-.493.164L2.949,20.247a.392.392,0,0,0,.106.512L4.91,22.133a7.005,7.005,0,0,0,0,3.784L3.055,27.295a.393.393,0,0,0-.106.512L4.4,30.319a.388.388,0,0,0,.493.164L7,29.571a7.723,7.723,0,0,0,3.288,1.877l.269,2.3a.393.393,0,0,0,.391.348h2.9a.393.393,0,0,0,.391-.348l.269-2.3A7.723,7.723,0,0,0,17.8,29.571l2.107.908a.388.388,0,0,0,.494-.164L21.851,27.8a.392.392,0,0,0-.106-.512L19.89,25.917a7,7,0,0,0,0-3.784l1.856-1.377a.393.393,0,0,0,.106-.512L20.4,17.731a.388.388,0,0,0-.494-.164l-2.107.911A7.723,7.723,0,0,0,14.51,16.6l-.269-2.3a.393.393,0,0,0-.391-.348Zm1.45,6.975a3.1,3.1,0,1,1-3.1,3.1A3.1,3.1,0,0,1,12.4,20.925Z" transform="translate(284.132 180.9)" fill="#7a7c7d"/></g></g></svg>