<svg xmlns="http://www.w3.org/2000/svg" xmlns:xlink="http://www.w3.org/1999/xlink" width="28" height="28" viewBox="0 0 28 28"><defs><clipPath id="a"><rect width="14" height="14" transform="translate(554 464)" fill="#7a7c7d"/></clipPath></defs><g transform="translate(-547 -457)"><rect width="28" height="28" rx="4" transform="translate(547 457)" fill="#fafafa"/><path d="M4,1A3,3,0,0,0,1,4V24a3,3,0,0,0,3,3H24a3,3,0,0,0,3-3V4a3,3,0,0,0-3-3H4M4,0H24a4,4,0,0,1,4,4V24a4,4,0,0,1-4,4H4a4,4,0,0,1-4-4V4A4,4,0,0,1,4,0Z" transform="translate(547 457)" fill="#e0e6ec"/><g clip-path="url(#a)"><path d="M7.929,4.236a.791.791,0,0,0-.561.234L2.884,8.954a.792.792,0,0,0,0,1.121L7.368,14.56a.792.792,0,0,0,1.121,0l.068-.068a.792.792,0,0,0,0-1.121L5.495,10.308H15.858a.793.793,0,1,0,0-1.586H5.495L8.558,5.659a.792.792,0,0,0,0-1.121L8.49,4.469A.791.791,0,0,0,7.929,4.236Z" transform="translate(551.349 461.486)" fill="#113d6b"/></g></g></svg>