<svg xmlns="http://www.w3.org/2000/svg" xmlns:xlink="http://www.w3.org/1999/xlink" width="28" height="28" viewBox="0 0 28 28"><defs><clipPath id="a"><rect width="14" height="14" transform="translate(554 464)" fill="#7a7c7d"/></clipPath></defs><g transform="translate(-547 -457)"><rect width="28" height="28" rx="4" transform="translate(547 457)" fill="#fafafa"/><path d="M4,1A3,3,0,0,0,1,4V24a3,3,0,0,0,3,3H24a3,3,0,0,0,3-3V4a3,3,0,0,0-3-3H4M4,0H24a4,4,0,0,1,4,4V24a4,4,0,0,1-4,4H4a4,4,0,0,1-4-4V4A4,4,0,0,1,4,0Z" transform="translate(547 457)" fill="#e0e6ec"/><g clip-path="url(#a)"><path d="M11.1,4.236a.791.791,0,0,0-.561.234l-.068.068a.792.792,0,0,0,0,1.121l3.063,3.063H3.172a.793.793,0,0,0,0,1.586H13.535l-3.063,3.063a.792.792,0,0,0,0,1.121l.068.068a.792.792,0,0,0,1.121,0l4.485-4.485a.792.792,0,0,0,0-1.121L11.661,4.469A.791.791,0,0,0,11.1,4.236Z" transform="translate(551.621 461.486)" fill="#113d6b"/></g></g></svg>