<svg xmlns="http://www.w3.org/2000/svg" xmlns:xlink="http://www.w3.org/1999/xlink" width="15" height="15" viewBox="0 0 15 15"><defs><clipPath id="a"><rect width="15" height="15" transform="translate(162 2067)" fill="#e0e6ec"/></clipPath></defs><g transform="translate(-162 -2067)" clip-path="url(#a)"><path d="M7.241,10.917l3,1.81a.625.625,0,0,0,.931-.676l-.8-3.411,2.65-2.3a.624.624,0,0,0-.356-1.094l-3.488-.3L7.817,1.734a.625.625,0,0,0-1.15,0L5.3,4.954l-3.488.3a.624.624,0,0,0-.356,1.094l2.65,2.3-.8,3.411a.625.625,0,0,0,.931.676Z" transform="translate(161.759 2066.914)" fill="#e0e6ec"/><path d="M10.562,13.12a.926.926,0,0,1-.478-.135L7.241,11.27,4.4,12.985a.915.915,0,0,1-.478.135.941.941,0,0,1-.73-.356.917.917,0,0,1-.173-.783l.755-3.234L1.26,6.572a.926.926,0,0,1,.528-1.623L5.1,4.668,6.389,1.617a.926.926,0,0,1,1.706,0L9.388,4.668l3.307.28a.926.926,0,0,1,.528,1.623L10.71,8.748l.755,3.234a.917.917,0,0,1-.173.783A.94.94,0,0,1,10.562,13.12ZM7.241,10.565l3.154,1.9a.319.319,0,0,0,.166.048.332.332,0,0,0,.257-.127.308.308,0,0,0,.058-.271L10.04,8.53l2.787-2.415a.323.323,0,0,0-.184-.565L8.974,5.239,7.539,1.852a.323.323,0,0,0-.595,0L5.509,5.239,1.839,5.55a.323.323,0,0,0-.184.565L4.443,8.53l-.837,3.589a.308.308,0,0,0,.058.271.332.332,0,0,0,.257.127.319.319,0,0,0,.166-.048Z" transform="translate(161.759 2066.914)" fill="#8ba0b7"/></g></svg>