<svg xmlns="http://www.w3.org/2000/svg" xmlns:xlink="http://www.w3.org/1999/xlink" width="18" height="18" viewBox="0 0 18 18"><defs><clipPath id="a"><rect width="18" height="18" transform="translate(173 729)" fill="#040f1b"/></clipPath></defs><g transform="translate(-173 -729)" clip-path="url(#a)"><path d="M10.8,1.809A6.3,6.3,0,0,0,4.507,8.1c0,4.034,5.37,10.588,5.6,10.864l.694.842.694-.842c.229-.277,5.6-6.83,5.6-10.864A6.3,6.3,0,0,0,10.8,1.809Zm0,1.8A4.5,4.5,0,0,1,15.292,8.1c0,2.434-2.8,6.621-4.493,8.839-1.69-2.216-4.493-6.4-4.493-8.839A4.5,4.5,0,0,1,10.8,3.608Zm0,2.241a2.25,2.25,0,1,0,2.25,2.25A2.249,2.249,0,0,0,10.8,5.849Z" transform="translate(171.201 727.191)" fill="#113d6b"/></g></svg>