<svg xmlns="http://www.w3.org/2000/svg" xmlns:xlink="http://www.w3.org/1999/xlink" width="12" height="12" viewBox="0 0 12 12"><defs><clipPath id="a"><rect width="12" height="12" transform="translate(567 558)" fill="#35c77e" stroke="#707070" stroke-width="1"/></clipPath></defs><g transform="translate(-567 -558)" clip-path="url(#a)"><path d="M11.452,2.958a6,6,0,0,0-9.438,7.233l-.778,2.583a.331.331,0,0,0,.4.415l2.7-.725a5.991,5.991,0,0,0,2.865.73h0a5.923,5.923,0,0,0,5.65-3.927A6.053,6.053,0,0,0,11.452,2.958ZM10.144,9.337a1.511,1.511,0,0,1-1.012.712c-.275.025-.532.124-1.8-.375A6.145,6.145,0,0,1,4.775,7.413a2.913,2.913,0,0,1-.612-1.549,1.677,1.677,0,0,1,.525-1.249.55.55,0,0,1,.4-.187c.1,0,.2,0,.287,0,.107,0,.225.01.337.259.133.3.424,1.037.462,1.112a.277.277,0,0,1,.013.262,1.04,1.04,0,0,1-.149.25c-.075.088-.157.2-.225.262s-.153.156-.066.306A4.507,4.507,0,0,0,6.58,7.919a4.116,4.116,0,0,0,1.2.744c.15.075.237.062.325-.038s.375-.437.474-.587.2-.125.337-.075.874.412,1.024.487.25.112.287.175A1.254,1.254,0,0,1,10.144,9.337Z" transform="translate(565.79 556.799)" fill="#35c77e"/></g></svg>