<svg xmlns="http://www.w3.org/2000/svg" xmlns:xlink="http://www.w3.org/1999/xlink" width="49" height="49" viewBox="0 0 49 49"><defs><clipPath id="a"><rect width="49" height="49" transform="translate(550 366)" fill="#fff" stroke="#707070" stroke-width="1"/></clipPath></defs><g transform="translate(-550 -366)" clip-path="url(#a)"><g transform="translate(548.014 364.676)"><path d="M30.81,2.649l1.242,3.973H20.922l1.242-3.973H30.81m.973-1.324H21.189l-1.655,5.3V7.946H33.439V6.622l-1.655-5.3Z" fill="#4788c7"/><path d="M11.919,49.662a3.315,3.315,0,0,1-3.311-3.311V13.905H44.365V46.351a3.315,3.315,0,0,1-3.311,3.311Z" fill="#dff0fe"/><path d="M43.7,14.568V46.351A2.651,2.651,0,0,1,41.054,49H11.919A2.651,2.651,0,0,1,9.27,46.351V14.568H43.7m1.324-1.324H7.946V46.351a3.973,3.973,0,0,0,3.973,3.973H41.054a3.973,3.973,0,0,0,3.973-3.973V13.243Z" fill="#4788c7"/><path d="M4.635,13.905V11.919A1.989,1.989,0,0,1,6.622,9.932h39.73a1.989,1.989,0,0,1,1.986,1.986v1.986Z" fill="#dff0fe"/><path d="M46.351,10.595a1.327,1.327,0,0,1,1.324,1.324v1.324H5.3V11.919a1.327,1.327,0,0,1,1.324-1.324h39.73m0-1.324H6.622a2.648,2.648,0,0,0-2.649,2.649v2.649H49V11.919A2.648,2.648,0,0,0,46.351,9.27Z" fill="#4788c7"/><path d="M7.874,9.932l.54-.792a7.278,7.278,0,0,1,6.018-3.181H38.539A7.278,7.278,0,0,1,44.557,9.14l.542.792Z" fill="#dff0fe"/><path d="M38.54,6.622a6.619,6.619,0,0,1,5.3,2.649H9.135a6.619,6.619,0,0,1,5.3-2.649H38.54m0-1.324H14.432a7.945,7.945,0,0,0-6.565,3.47L6.622,10.595h39.73L45.105,8.767A7.946,7.946,0,0,0,38.54,5.3ZM12.581,45.027h0a.664.664,0,0,1-.662-.662V19.2a.664.664,0,0,1,.662-.662h0a.664.664,0,0,1,.662.662V44.365A.664.664,0,0,1,12.581,45.027Zm7.946,0h0a.664.664,0,0,1-.662-.662V19.2a.664.664,0,0,1,.662-.662h0a.664.664,0,0,1,.662.662V44.365A.664.664,0,0,1,20.527,45.027Zm11.919,0h0a.664.664,0,0,1-.662-.662V19.2a.664.664,0,0,1,.662-.662h0a.664.664,0,0,1,.662.662V44.365A.664.664,0,0,1,32.446,45.027Zm7.946,0h0a.664.664,0,0,1-.662-.662V19.2a.664.664,0,0,1,.662-.662h0a.664.664,0,0,1,.662.662V44.365A.664.664,0,0,1,40.392,45.027Z" fill="#4788c7"/></g></g></svg>