<svg xmlns="http://www.w3.org/2000/svg" xmlns:xlink="http://www.w3.org/1999/xlink" width="14" height="14" viewBox="0 0 14 14"><defs><clipPath id="a"><rect width="14" height="14" transform="translate(1059 508)" fill="red"/></clipPath></defs><g transform="translate(-1059 -508)" clip-path="url(#a)"><path d="M7.565,1.4a1.361,1.361,0,0,0-.964.4l-.3.3H2.8a.7.7,0,1,0,0,1.4H14a.7.7,0,1,0,0-1.4H10.5l-.3-.3a1.36,1.36,0,0,0-.964-.4ZM3.056,4.9l1.069,9.285A1.4,1.4,0,0,0,5.512,15.4h5.774a1.406,1.406,0,0,0,1.389-1.221L13.744,4.9Z" transform="translate(1057.6 506.6)" fill="red"/></g></svg>