<svg xmlns="http://www.w3.org/2000/svg" xmlns:xlink="http://www.w3.org/1999/xlink" width="12" height="12" viewBox="0 0 12 12"><defs><clipPath id="a"><rect width="12" height="12" transform="translate(163 2068)" fill="#fbc418"/></clipPath></defs><g transform="translate(-163 -2068)" clip-path="url(#a)"><path d="M7.241,10.917l3,1.81a.625.625,0,0,0,.931-.676l-.8-3.411,2.65-2.3a.624.624,0,0,0-.356-1.094l-3.488-.3L7.817,1.734a.625.625,0,0,0-1.15,0L5.3,4.954l-3.488.3a.624.624,0,0,0-.356,1.094l2.65,2.3-.8,3.411a.625.625,0,0,0,.931.676Z" transform="translate(161.759 2066.914)" fill="#fbc418"/></g></svg>