<svg xmlns="http://www.w3.org/2000/svg" xmlns:xlink="http://www.w3.org/1999/xlink" width="24" height="24" viewBox="0 0 24 24"><defs><clipPath id="a"><rect width="24" height="24" transform="translate(139 206)" fill="#091f36"/></clipPath></defs><g transform="translate(-139 -206)" clip-path="url(#a)"><path d="M13.593,7.261a1.356,1.356,0,0,0-.961.4L4.943,15.35a1.358,1.358,0,0,0,0,1.922l7.688,7.688a1.358,1.358,0,0,0,1.922,0l.117-.117a1.358,1.358,0,0,0,0-1.922L9.419,17.671H27.185a1.359,1.359,0,0,0,0-2.719H9.419L14.671,9.7a1.358,1.358,0,0,0,0-1.922l-.117-.117A1.357,1.357,0,0,0,13.593,7.261Z" transform="translate(134.455 201.69)" fill="#113d6b"/></g></svg>