<svg xmlns="http://www.w3.org/2000/svg" xmlns:xlink="http://www.w3.org/1999/xlink" width="16" height="16" viewBox="0 0 16 16"><defs><clipPath id="a"><rect width="16" height="16" transform="translate(271 3464)" fill="#fff"/></clipPath></defs><g transform="translate(-271 -3464)" clip-path="url(#a)"><path d="M9.609,1.6A7.992,7.992,0,0,0,2.684,13.581L1.6,17.6l4.186-.989a7.985,7.985,0,0,0,3.819.972h0a7.991,7.991,0,1,0,0-15.983Zm0,1.6A6.391,6.391,0,1,1,6.553,15.206l-.539-.294-.6.141-1.575.372L4.228,14l.173-.641-.331-.575A6.391,6.391,0,0,1,9.608,3.2ZM6.781,5.9a.734.734,0,0,0-.533.25,2.233,2.233,0,0,0-.7,1.664A3.885,3.885,0,0,0,6.364,9.88a8.192,8.192,0,0,0,3.411,3.012c1.686.665,2.029.534,2.4.5a2.014,2.014,0,0,0,1.348-.948,1.677,1.677,0,0,0,.117-.95c-.05-.083-.183-.133-.383-.233s-1.181-.582-1.364-.648-.317-.1-.45.1-.514.648-.631.781-.233.152-.433.052a5.5,5.5,0,0,1-1.606-.992A6.015,6.015,0,0,1,7.658,9.172c-.116-.2-.011-.309.089-.408s.2-.233.3-.35a1.389,1.389,0,0,0,.2-.333.37.37,0,0,0-.017-.35c-.05-.1-.438-1.086-.616-1.481-.15-.332-.308-.34-.45-.345C7.046,5.9,6.914,5.9,6.781,5.9Z" transform="translate(269.4 3462.4)" fill="#fff"/></g></svg>