<svg xmlns="http://www.w3.org/2000/svg" xmlns:xlink="http://www.w3.org/1999/xlink" width="24" height="24" viewBox="0 0 24 24"><defs><clipPath id="a"><rect width="24" height="24" transform="translate(1085 38)" fill="#c8dbee"/></clipPath></defs><g transform="translate(-1085 -38)" clip-path="url(#a)"><path d="M14.4,2.4a1.8,1.8,0,0,0-1.8,1.8v.834A7.2,7.2,0,0,0,7.2,12v7.2L5.358,20.588h0A1.2,1.2,0,0,0,6,22.8H22.8a1.2,1.2,0,0,0,.644-2.213L21.6,19.2V12a7.2,7.2,0,0,0-5.4-6.966V4.2A1.8,1.8,0,0,0,14.4,2.4ZM12,24a2.4,2.4,0,1,0,4.8,0Z" transform="translate(1082.6 35.6)" fill="#c8dbee"/></g></svg>