<svg xmlns="http://www.w3.org/2000/svg" xmlns:xlink="http://www.w3.org/1999/xlink" width="65" height="65" viewBox="0 0 65 65"><defs><clipPath id="a"><rect width="65" height="65" transform="translate(179 378)" fill="#8ba0b7"/></clipPath></defs><g transform="translate(-179 -378)" clip-path="url(#a)"><path d="M16.647,9.512a8.73,8.73,0,0,0-8.72,8.72V57.867a8.73,8.73,0,0,0,8.72,8.72H44.419a15.89,15.89,0,0,1-4.23-4.756H16.647a3.968,3.968,0,0,1-3.963-3.963v-32.5H63.416V41.242a15.894,15.894,0,0,1,4.756,5.784V18.232a8.73,8.73,0,0,0-8.72-8.72Zm4.756,22.2a2.378,2.378,0,1,0,0,4.756h3.171a2.378,2.378,0,1,0,0-4.756Zm12.683,0a2.378,2.378,0,1,0,0,4.756H54.7a2.378,2.378,0,1,0,0-4.756ZM21.4,41.22a2.378,2.378,0,1,0,0,4.756h3.171a2.378,2.378,0,1,0,0-4.756Zm12.683,0a2.378,2.378,0,1,0,0,4.756h6.1a15.912,15.912,0,0,1,4.23-4.756Zm19.817,0a12.683,12.683,0,1,0,7.122,23.168l7.843,7.843a2.378,2.378,0,0,0,3.363-3.363l-7.84-7.843A12.675,12.675,0,0,0,53.9,41.22Zm0,4.756A7.927,7.927,0,1,1,45.976,53.9,7.936,7.936,0,0,1,53.9,45.976ZM21.4,50.733a2.378,2.378,0,1,0,0,4.756h3.171a2.378,2.378,0,1,0,0-4.756Zm12.683,0a2.378,2.378,0,1,0,0,4.756H38.13c-.051-.522-.081-1.05-.081-1.585a15.944,15.944,0,0,1,.319-3.171Z" transform="translate(171.073 369.28)" fill="#8ba0b7"/></g></svg>