<svg xmlns="http://www.w3.org/2000/svg" xmlns:xlink="http://www.w3.org/1999/xlink" width="16" height="16" viewBox="0 0 16 16"><defs><clipPath id="a"><rect width="16" height="16" transform="translate(271 3464)" fill="#113d6b"/></clipPath></defs><g transform="translate(-271 -3464)" clip-path="url(#a)"><path d="M9.6,1.6a.8.8,0,0,0-.566.236L4.928,5.708l-.009.008,0,0A.4.4,0,0,0,5.2,6.4H8v6.4a.8.8,0,0,0,.8.8h1.6a.8.8,0,0,0,.8-.8V6.4H14a.4.4,0,0,0,.283-.683l-.025-.023L10.173,1.842l-.027-.025A.8.8,0,0,0,9.6,1.6ZM2.4,16a.8.8,0,1,0,0,1.6H16.8a.8.8,0,1,0,0-1.6Z" transform="translate(269.4 3462.4)" fill="#113d6b"/></g></svg>