<svg xmlns="http://www.w3.org/2000/svg" xmlns:xlink="http://www.w3.org/1999/xlink" width="65" height="65" viewBox="0 0 65 65"><defs><clipPath id="a"><rect width="65" height="65" transform="translate(179 378)" fill="#8ba0b7"/></clipPath></defs><g transform="translate(-179 -378)" clip-path="url(#a)"><path d="M19.5,8.125a2.438,2.438,0,0,0-1.654.647L7.284,18.521a2.438,2.438,0,0,0-.784,1.79v6.5a11.961,11.961,0,0,0,3.25,8.166V69.059A2.438,2.438,0,0,0,12.187,71.5H65.809a2.438,2.438,0,0,0,2.437-2.437V34.98A11.961,11.961,0,0,0,71.5,26.811v-6.5h-.007a2.438,2.438,0,0,0-.781-1.79L60.151,8.772A2.438,2.438,0,0,0,58.5,8.125ZM20.451,13H57.545l5.281,4.875H15.17Zm-9.077,9.75H26.538V26.83a7.412,7.412,0,0,1-7.579,7.293,7.417,7.417,0,0,1-7.585-7.312Zm20.042,0H46.583v4.062a7.589,7.589,0,0,1-15.167.019V22.749Zm20.042,0H66.625v4.062a7.589,7.589,0,0,1-15.167,0Zm-2.437,10.9A12.341,12.341,0,0,0,59.04,39a12.554,12.554,0,0,0,4.332-.781v28.4h-26V46.31a2.438,2.438,0,0,0-2.437-2.437h-13A2.438,2.438,0,0,0,19.5,46.31V66.622H14.624v-28.4a12.52,12.52,0,0,0,14.351-4.205A12.558,12.558,0,0,0,39,39,12.343,12.343,0,0,0,49.021,33.647ZM44.685,43.873a2.438,2.438,0,0,0-2.437,2.437V57.685a2.438,2.438,0,0,0,2.437,2.437H56.06A2.438,2.438,0,0,0,58.5,57.685V46.31a2.438,2.438,0,0,0-2.437-2.437ZM24.374,48.748H32.5V66.622H24.374Zm22.749,0h6.5v6.5h-6.5Z" transform="translate(172.5 370.689)" fill="#8ba0b7"/></g></svg>