<svg xmlns="http://www.w3.org/2000/svg" xmlns:xlink="http://www.w3.org/1999/xlink" width="12" height="12" viewBox="0 0 12 12"><defs><clipPath id="a"><rect width="12" height="12" transform="translate(567 558)" fill="#7a7c7d"/></clipPath></defs><g transform="translate(-567 -558)" clip-path="url(#a)"><path d="M12.839,10.187l-1.683-.194a1.33,1.33,0,0,0-1.1.381L8.824,11.61a10.053,10.053,0,0,1-4.4-4.4L5.658,5.972a1.33,1.33,0,0,0,.381-1.1L5.845,3.193A1.337,1.337,0,0,0,4.516,2.011H3.36A1.326,1.326,0,0,0,2.024,3.394,11.35,11.35,0,0,0,12.639,14.008a1.326,1.326,0,0,0,1.383-1.336V11.517A1.337,1.337,0,0,0,12.839,10.187Z" transform="translate(564.979 555.989)" fill="#113d6b"/></g></svg>