<svg xmlns="http://www.w3.org/2000/svg" xmlns:xlink="http://www.w3.org/1999/xlink" width="14" height="14" viewBox="0 0 14 14"><defs><clipPath id="a"><rect width="14" height="14" transform="translate(1114 45)" fill="#fff"/></clipPath></defs><g transform="translate(-1114 -45)" clip-path="url(#a)"><path d="M8.4,1.4A6.988,6.988,0,0,0,2.815,4.2H2.8v.019A6.99,6.99,0,1,0,8.4,1.4Zm2.1,1.809a5.6,5.6,0,0,1,2.029,8.971A1.4,1.4,0,0,0,11.2,11.2h-.7V9.1a.7.7,0,0,0-.7-.7H6.3V7H7a.7.7,0,0,0,.7-.7V4.9H9.1a1.4,1.4,0,0,0,1.4-1.4ZM2.945,7.145,4.2,8.4l2.1,2.1v.7a1.4,1.4,0,0,0,1.4,1.4v1.352A5.585,5.585,0,0,1,2.945,7.145Z" transform="translate(1112.6 43.6)" fill="#fff"/></g></svg>