<svg xmlns="http://www.w3.org/2000/svg" xmlns:xlink="http://www.w3.org/1999/xlink" width="24" height="24" viewBox="0 0 24 24"><defs><clipPath id="a"><rect width="24" height="24" transform="translate(1125 38)" fill="#c8dbee"/></clipPath></defs><g transform="translate(-1125 -38)" clip-path="url(#a)"><path d="M12.588,2.4a1.2,1.2,0,0,0-1.177.97l-.4,2.058a9.579,9.579,0,0,0-2.7,1.549L6.342,6.3a1.2,1.2,0,0,0-1.43.534L3.1,9.968a1.2,1.2,0,0,0,.251,1.507l1.582,1.376a8.9,8.9,0,0,0,0,3.1L3.354,17.325A1.2,1.2,0,0,0,3.1,18.832l1.809,3.136a1.2,1.2,0,0,0,1.43.537l1.973-.68a9.583,9.583,0,0,0,2.7,1.547l.4,2.058a1.2,1.2,0,0,0,1.177.97h3.624a1.2,1.2,0,0,0,1.176-.97l.4-2.058a9.578,9.578,0,0,0,2.7-1.549l1.973.68a1.2,1.2,0,0,0,1.43-.534L25.7,18.83a1.2,1.2,0,0,0-.251-1.5l-1.582-1.376a8.894,8.894,0,0,0,0-3.1l1.582-1.376A1.2,1.2,0,0,0,25.7,9.968L23.888,6.832a1.2,1.2,0,0,0-1.43-.537l-1.973.68a9.581,9.581,0,0,0-2.7-1.547l-.4-2.058a1.2,1.2,0,0,0-1.176-.97ZM14.4,9.6a4.8,4.8,0,1,1-4.8,4.8A4.8,4.8,0,0,1,14.4,9.6Z" transform="translate(1122.6 35.6)" fill="#c8dbee"/></g></svg>