<svg xmlns="http://www.w3.org/2000/svg" xmlns:xlink="http://www.w3.org/1999/xlink" width="79" height="79" viewBox="0 0 79 79"><defs><clipPath id="a"><rect width="32" height="32" transform="translate(203 388)" fill="#040f1b"/></clipPath></defs><g transform="translate(-179 -364)"><circle cx="39.5" cy="39.5" r="39.5" transform="translate(179 364)" fill="#e0f6fe"/><path d="M39.5,1A38.51,38.51,0,0,0,24.514,74.975,38.51,38.51,0,0,0,54.486,4.025,38.258,38.258,0,0,0,39.5,1m0-1A39.5,39.5,0,1,1,0,39.5,39.5,39.5,0,0,1,39.5,0Z" transform="translate(179 364)" fill="#c8dbee"/><g clip-path="url(#a)"><path d="M22.4,3.2a4.8,4.8,0,0,0-3.394,1.406l-14.4,14.4a4.818,4.818,0,0,0,0,6.788l8,8a4.8,4.8,0,0,0,6.788,0l14.4-14.4A4.8,4.8,0,0,0,35.2,16V7.2a4.019,4.019,0,0,0-4-4Zm0,2.4h8.8a1.588,1.588,0,0,1,1.6,1.6V16a2.358,2.358,0,0,1-.7,1.7L17.7,32.1a2.4,2.4,0,0,1-3.394,0l-8-8a2.387,2.387,0,0,1,0-3.394L20.7,6.3A2.354,2.354,0,0,1,22.4,5.6Zm4.8,3.2a2.4,2.4,0,1,0,2.4,2.4A2.4,2.4,0,0,0,27.2,8.8Z" transform="translate(199.796 384.8)" fill="#113d6b"/></g></g></svg>