<svg xmlns="http://www.w3.org/2000/svg" xmlns:xlink="http://www.w3.org/1999/xlink" width="92" height="92" viewBox="0 0 92 92"><defs><clipPath id="a"><rect width="32" height="32" transform="translate(722 405)" fill="#35c77e"/></clipPath></defs><g transform="translate(-692 -375)"><circle cx="46" cy="46" r="46" transform="translate(692 375)" fill="#fff"/><g clip-path="url(#a)"><path d="M2.909,4.364V26.182a4.369,4.369,0,0,0,4.364,4.364H15.4a11.507,11.507,0,0,1-.756-2.909H7.273a1.457,1.457,0,0,1-1.455-1.455V7.273H23.273v7.653a11.625,11.625,0,0,1,2.909-.381V4.364Zm5.818,5.818v4.364H20.364V10.182Zm20.364,0v4.744A11.519,11.519,0,0,1,32,16.114V10.182ZM8.727,17.455v2.909h7.386A11.67,11.67,0,0,1,18.5,17.455Zm17.455,0a8.727,8.727,0,1,0,0,17.455V32a5.8,5.8,0,0,1-5.818-5.818,5.9,5.9,0,0,1,.117-1.176,5.821,5.821,0,1,1,10.551,4.4c-.023.034-.05.066-.074.1l-1.866-1.866v5.818h5.818l-1.881-1.881a8.712,8.712,0,0,0-6.847-14.119ZM8.727,23.273v2.909h5.818a11.625,11.625,0,0,1,.381-2.909Z" transform="translate(719.091 401.363)" fill="#35c77e"/></g></g></svg>