<svg xmlns="http://www.w3.org/2000/svg" xmlns:xlink="http://www.w3.org/1999/xlink" width="14" height="14" viewBox="0 0 14 14"><defs><clipPath id="a"><rect width="14" height="14" transform="translate(1059 570)" fill="#7a7c7d"/></clipPath></defs><g transform="translate(-1059 -570)" clip-path="url(#a)"><path d="M7.635,2.545C3.272,2.545,1.2,6.285.7,7.353a.66.66,0,0,0,0,.563c.5,1.068,2.575,4.809,6.938,4.809,4.348,0,6.422-3.714,6.933-4.8a.686.686,0,0,0,0-.587C14.057,6.259,11.983,2.545,7.635,2.545Zm0,1.909A3.181,3.181,0,1,1,4.454,7.635,3.182,3.182,0,0,1,7.635,4.454Zm0,1.273A1.909,1.909,0,1,0,9.544,7.635,1.909,1.909,0,0,0,7.635,5.726Z" transform="translate(1058.366 569.365)" fill="#7a7c7d"/></g></svg>