<svg xmlns="http://www.w3.org/2000/svg" xmlns:xlink="http://www.w3.org/1999/xlink" width="32" height="32" viewBox="0 0 32 32"><defs><clipPath id="a"><rect width="16" height="16" transform="translate(270 794)" fill="#fff"/></clipPath></defs><g transform="translate(-262 -784)"><rect width="32" height="32" rx="4" transform="translate(262 784)" opacity="0.17"/><g transform="translate(0 -2)" clip-path="url(#a)"><path d="M7.2,1.6a5.6,5.6,0,1,0,3.659,9.825l.341.341V12.8L16,17.6,17.6,16l-4.8-4.8H11.766l-.341-.341A5.588,5.588,0,0,0,7.2,1.6Zm0,1.6a4,4,0,1,1-4,4A3.988,3.988,0,0,1,7.2,3.2ZM6.4,4.8V6.4H4.8V8H6.4V9.6H8V8H9.6V6.4H8V4.8Z" transform="translate(268.4 792.4)" fill="#fff"/></g></g></svg>