<svg xmlns="http://www.w3.org/2000/svg" xmlns:xlink="http://www.w3.org/1999/xlink" width="65" height="65" viewBox="0 0 65 65"><defs><clipPath id="a"><rect width="65" height="65" transform="translate(179 378)" fill="#8ba0b7"/></clipPath></defs><g transform="translate(-179 -378)" clip-path="url(#a)"><path d="M18.14,4.535a9,9,0,0,0-6.8,2.887A9.266,9.266,0,0,0,9.07,13.6a9.266,9.266,0,0,0,2.273,6.182,9,9,0,0,0,6.8,2.888,9,9,0,0,0,6.8-2.888A9.266,9.266,0,0,0,27.209,13.6a9.266,9.266,0,0,0-2.273-6.182A9,9,0,0,0,18.14,4.535Zm21.163,0a9,9,0,0,0-6.8,2.887A9.266,9.266,0,0,0,30.233,13.6a9.266,9.266,0,0,0,2.273,6.182,9.442,9.442,0,0,0,13.593,0A9.266,9.266,0,0,0,48.372,13.6,9.266,9.266,0,0,0,46.1,7.422,9,9,0,0,0,39.3,4.535ZM18.14,9.07a4.178,4.178,0,0,1,3.407,1.364A4.827,4.827,0,0,1,22.674,13.6a4.827,4.827,0,0,1-1.128,3.171A4.179,4.179,0,0,1,18.14,18.14a4.179,4.179,0,0,1-3.407-1.364A4.827,4.827,0,0,1,13.6,13.6a4.827,4.827,0,0,1,1.128-3.171A4.178,4.178,0,0,1,18.14,9.07Zm21.163,0a4.178,4.178,0,0,1,3.407,1.364A4.827,4.827,0,0,1,43.837,13.6a4.827,4.827,0,0,1-1.128,3.171A4.179,4.179,0,0,1,39.3,18.14,4.179,4.179,0,0,1,35.9,16.776,4.827,4.827,0,0,1,34.767,13.6,4.827,4.827,0,0,1,35.9,10.434,4.178,4.178,0,0,1,39.3,9.07ZM9.826,25.7a5.3,5.3,0,0,0-5.291,5.291v14.36A13.584,13.584,0,0,0,26.56,56.013a16.665,16.665,0,0,1-2.421-3.879A9.055,9.055,0,0,1,9.07,45.349V30.988a.757.757,0,0,1,.756-.756H22.713A8.272,8.272,0,0,1,24.582,25.7Zm21.163,0A5.3,5.3,0,0,0,25.7,30.988v14.36a13.622,13.622,0,0,0,8.2,12.483,19.6,19.6,0,0,1-.647-4.925c0-.263.028-.519.038-.779a9.04,9.04,0,0,1-3.062-6.779V30.988a.757.757,0,0,1,.756-.756H47.616a.757.757,0,0,1,.756.756V33.8a19.148,19.148,0,0,1,2.138-.384c.041,0,.077-.013.118-.018a19.545,19.545,0,0,1,2.279-.145V30.988A5.3,5.3,0,0,0,47.616,25.7ZM52.907,36.279a15.576,15.576,0,0,0-2.6.218l-.523,2.164a6.045,6.045,0,0,1-7.59,4.381l-1.822-.54a16.781,16.781,0,0,0-2.577,4.747l1.352,1.3a6.049,6.049,0,0,1,0,8.715l-1.352,1.3a16.763,16.763,0,0,0,2.577,4.747l1.822-.54a6.045,6.045,0,0,1,7.59,4.381l.523,2.164a15.632,15.632,0,0,0,5.208,0l.523-2.164a6.045,6.045,0,0,1,7.59-4.381l1.822.54a16.781,16.781,0,0,0,2.577-4.747l-1.352-1.3a6.049,6.049,0,0,1,0-8.715l1.352-1.3A16.763,16.763,0,0,0,65.446,42.5l-1.822.54a6.045,6.045,0,0,1-7.59-4.381L55.511,36.5A15.576,15.576,0,0,0,52.907,36.279Zm0,12.093a4.535,4.535,0,1,1-4.535,4.535A4.535,4.535,0,0,1,52.907,48.372Z" transform="translate(175.221 373.465)" fill="#8ba0b7"/></g></svg>