<svg xmlns="http://www.w3.org/2000/svg" xmlns:xlink="http://www.w3.org/1999/xlink" width="32" height="32" viewBox="0 0 32 32"><defs><clipPath id="a"><rect width="32" height="32" transform="translate(203 388)" fill="#040f1b"/></clipPath></defs><g transform="translate(-203 -388)" clip-path="url(#a)"><path d="M9.143,3.81a1.143,1.143,0,0,0-.775.3L3.415,8.684a1.143,1.143,0,0,0-.368.839v3.048A5.608,5.608,0,0,0,4.571,16.4V32.381a1.143,1.143,0,0,0,1.143,1.143H22.921a29.094,29.094,0,0,1-1.859-2.286H17.524V21.714a1.143,1.143,0,0,0-1.143-1.143h-6.1a1.143,1.143,0,0,0-1.143,1.143v9.524H6.857V17.92a5.87,5.87,0,0,0,6.728-1.97,5.9,5.9,0,0,0,8.094,1.265h0a16.966,16.966,0,0,1,1.555-.949,9.074,9.074,0,0,1,2.455-.857,3.4,3.4,0,0,1-1.561-2.826V10.667h7.11v1.9a3.4,3.4,0,0,1-1.714,2.918,9.088,9.088,0,0,1,2.436.961,5.621,5.621,0,0,0,1.564-3.879V9.524h0a1.143,1.143,0,0,0-.366-.839L28.2,4.113a1.143,1.143,0,0,0-.775-.3ZM9.589,6.1H26.982l2.476,2.286H7.113ZM5.333,10.667h7.11V12.58A3.475,3.475,0,0,1,8.89,16a3.478,3.478,0,0,1-3.557-3.429Zm9.4,0h7.11v1.915a3.558,3.558,0,0,1-7.11,0V10.667Zm12.7,6.1a7.628,7.628,0,0,0-7.619,7.619c0,3.609,3.824,7.846,6.1,10.051a2.17,2.17,0,0,0,3.033,0c2.279-2.2,6.1-6.441,6.1-10.051A7.628,7.628,0,0,0,27.429,16.762Zm0,5.333a2.286,2.286,0,1,1-2.286,2.286A2.286,2.286,0,0,1,27.429,22.1Zm-16,.762h3.81v8.381h-3.81Z" transform="translate(199.952 384.571)" fill="#113d6b"/></g></svg>