<svg xmlns="http://www.w3.org/2000/svg" xmlns:xlink="http://www.w3.org/1999/xlink" width="14" height="14" viewBox="0 0 14 14"><defs><clipPath id="a"><rect width="14" height="14" transform="translate(1059 570)" fill="#7a7c7d"/></clipPath></defs><g transform="translate(-1059 -570)" clip-path="url(#a)"><path d="M1.909,1.909a.637.637,0,0,0-.636.636v8.909a1.909,1.909,0,0,0,1.909,1.909H6.738a5.066,5.066,0,0,1-.374-1.909H4.455a.636.636,0,1,1,0-1.273H6.53a5.039,5.039,0,0,1,.52-1.273h-2.6a.636.636,0,1,1,0-1.273h3.64a5.066,5.066,0,0,1,3.36-1.273V2.545a.637.637,0,0,0-.636-.636ZM4.455,3.818H8.273a.637.637,0,0,1,.636.636v.636a.637.637,0,0,1-.636.636H4.455a.637.637,0,0,1-.636-.636V4.455A.637.637,0,0,1,4.455,3.818Zm8.909.636a.637.637,0,0,0-.636.636V6.53A5.039,5.039,0,0,1,14,7.05V5.091A.637.637,0,0,0,13.364,4.455ZM11.455,7.636a3.818,3.818,0,1,0,3.818,3.818A3.828,3.828,0,0,0,11.455,7.636Zm0,1.273a2.532,2.532,0,0,1,1.288.358L9.267,12.742a2.534,2.534,0,0,1,2.188-3.833Zm2.188,1.258a2.534,2.534,0,0,1-3.475,3.475Z" transform="translate(1057.727 568.409)" fill="#7a7c7d"/></g></svg>