<svg xmlns="http://www.w3.org/2000/svg" xmlns:xlink="http://www.w3.org/1999/xlink" width="15" height="15" viewBox="0 0 15 15"><defs><clipPath id="a"><rect width="15" height="15" transform="translate(1059 469)" fill="#8ba0b7"/></clipPath></defs><g transform="translate(-1059 -469)" clip-path="url(#a)"><path d="M3.318,2.487a.833.833,0,0,0-.82.844V16.654a.833.833,0,1,0,1.665,0v-5H9.8a.833.833,0,0,1,.745.46l.372.745a.832.832,0,0,0,.745.46h5a.833.833,0,0,0,.833-.833V5a.833.833,0,0,0-.833-.833H12.687a.833.833,0,0,1-.745-.46l-.372-.745a.832.832,0,0,0-.745-.46H3.459a.833.833,0,0,0-.141-.011Z" transform="translate(1056.508 466.514)" fill="#8ba0b7"/></g></svg>