<svg xmlns="http://www.w3.org/2000/svg" xmlns:xlink="http://www.w3.org/1999/xlink" width="12" height="12" viewBox="0 0 12 12"><defs><clipPath id="a"><rect width="12" height="12" transform="translate(923 510)" fill="red"/></clipPath></defs><g transform="translate(-923 -510)" clip-path="url(#a)"><path d="M7.2,1.2a6,6,0,1,0,6,6A5.995,5.995,0,0,0,7.2,1.2Zm2.824,7.976a.6.6,0,1,1-.848.848L7.2,8.048,5.224,10.024a.6.6,0,1,1-.848-.848L6.352,7.2,4.376,5.224a.6.6,0,0,1,.848-.848L7.2,6.352,9.176,4.376a.6.6,0,0,1,.848.848L8.048,7.2Z" transform="translate(921.8 508.8)" fill="#113d6b"/></g></svg>