<svg xmlns="http://www.w3.org/2000/svg" xmlns:xlink="http://www.w3.org/1999/xlink" width="65" height="65" viewBox="0 0 65 65"><defs><clipPath id="a"><rect width="65" height="65" transform="translate(179 378)" fill="#8ba0b7"/></clipPath></defs><g transform="translate(-179 -378)" clip-path="url(#a)"><path d="M45.5,6.5a9.748,9.748,0,0,0-6.894,2.856L9.356,38.606a9.787,9.787,0,0,0,0,13.787l16.25,16.25a9.747,9.747,0,0,0,13.787,0l29.25-29.25A9.754,9.754,0,0,0,71.5,32.5V14.625A8.163,8.163,0,0,0,63.375,6.5Zm0,4.875H63.375a3.225,3.225,0,0,1,3.25,3.25V32.5a4.789,4.789,0,0,1-1.428,3.45L35.947,65.2a4.873,4.873,0,0,1-6.894,0L12.8,48.947a4.849,4.849,0,0,1,0-6.894L42.053,12.8A4.781,4.781,0,0,1,45.5,11.375Zm9.75,6.5a4.875,4.875,0,1,0,4.875,4.875A4.875,4.875,0,0,0,55.25,17.875Z" transform="translate(172.492 371.5)" fill="#8ba0b7"/></g></svg>