<svg xmlns="http://www.w3.org/2000/svg" xmlns:xlink="http://www.w3.org/1999/xlink" width="12" height="12" viewBox="0 0 12 12"><defs><clipPath id="a"><rect width="12" height="12" transform="translate(923 510)" fill="#fbc418"/></clipPath></defs><g transform="translate(-923 -510)" clip-path="url(#a)"><path d="M5.315,1.988a.666.666,0,0,0-.1.009H3.994a.666.666,0,1,0,0,1.331H4.66v.894a3.326,3.326,0,0,0,.975,2.353L7.047,7.988,5.635,9.4a3.326,3.326,0,0,0-.975,2.353v.894H3.994a.666.666,0,1,0,0,1.331h1.22a.666.666,0,0,0,.217,0h5.108a.666.666,0,0,0,.217,0h1.226a.666.666,0,1,0,0-1.331h-.666v-.894A3.329,3.329,0,0,0,10.341,9.4L8.929,7.988l1.412-1.412a3.328,3.328,0,0,0,.975-2.353V3.328h.666a.666.666,0,1,0,0-1.331H10.762a.666.666,0,0,0-.217,0H5.428a.666.666,0,0,0-.113-.009Zm.676,1.34H9.985v.894a1.993,1.993,0,0,1-.333,1.1H6.324a1.989,1.989,0,0,1-.333-1.1Zm2,5.6L9.4,10.341a2,2,0,0,1,.585,1.412v.894H5.991v-.894a1.991,1.991,0,0,1,.585-1.411Z" transform="translate(921.012 508.012)" fill="#fbc418"/></g></svg>