<svg xmlns="http://www.w3.org/2000/svg" xmlns:xlink="http://www.w3.org/1999/xlink" width="32" height="32" viewBox="0 0 32 32"><defs><clipPath id="a"><rect width="32" height="32" transform="translate(203 388)" fill="#040f1b"/></clipPath></defs><g transform="translate(-203 -388)" clip-path="url(#a)"><path d="M19.2,3.2a16,16,0,1,0,16,16A16.018,16.018,0,0,0,19.2,3.2Zm0,2.4A13.6,13.6,0,1,1,5.6,19.2,13.582,13.582,0,0,1,19.2,5.6ZM19.141,8a1.212,1.212,0,0,0-.789.348,1.164,1.164,0,0,0-.152.184,1.272,1.272,0,0,0-.112.208,1.806,1.806,0,0,0-.064.225A1.074,1.074,0,0,0,18,9.2a1.211,1.211,0,0,0,.744,1.112,1.233,1.233,0,0,0,.912,0A1.211,1.211,0,0,0,20.4,9.2a1.074,1.074,0,0,0-.023-.231,1.846,1.846,0,0,0-.064-.225,1.719,1.719,0,0,0-.112-.208,1.2,1.2,0,0,0-.336-.334,1.727,1.727,0,0,0-.208-.114,2,2,0,0,0-.225-.062A1.125,1.125,0,0,0,19.141,8Zm4.461.986a1.2,1.2,0,0,0-.586,2.283,1.293,1.293,0,0,0,.528.12,1.215,1.215,0,0,0,1.08-.68A1.211,1.211,0,0,0,23.6,8.989Zm-8.811,0a1.2,1.2,0,0,0,.058,2.4,1.241,1.241,0,0,0,.528-.12,1.2,1.2,0,0,0-.586-2.278Zm12.13,2.775a1.2,1.2,0,0,0,.1,2.391,1.189,1.189,0,0,0,.936-1.944A1.188,1.188,0,0,0,26.92,11.769Zm-15.445,0a1.2,1.2,0,0,0-.844,2.139,1.224,1.224,0,0,0,.745.256,1.186,1.186,0,0,0,.936-.448,1.2,1.2,0,0,0-.184-1.688A1.189,1.189,0,0,0,11.475,11.773ZM19.183,12.8a1.2,1.2,0,0,0-.831.352l-3.6,3.6a1.2,1.2,0,1,0,1.7,1.7L18,16.9v7.5a1.2,1.2,0,1,0,2.4,0V16.9l1.552,1.552a1.2,1.2,0,1,0,1.7-1.7l-3.6-3.6a1.2,1.2,0,0,0-.866-.352Zm9.739,2.97a1.231,1.231,0,0,0-.242.03,1.2,1.2,0,0,0-.9,1.441,1.189,1.189,0,0,0,1.167.928,1.4,1.4,0,0,0,.264-.025,1.2,1.2,0,0,0-.294-2.373ZM9.47,15.778a1.2,1.2,0,0,0-.286,2.373,1.345,1.345,0,0,0,.264.023,1.2,1.2,0,0,0,.264-2.367A1.227,1.227,0,0,0,9.47,15.778Zm19.5,4.441a1.2,1.2,0,0,0-.288,2.373,1.487,1.487,0,0,0,.264.031,1.2,1.2,0,0,0,.023-2.4Zm-19.55.008a1.2,1.2,0,0,0,.023,2.4,1.473,1.473,0,0,0,.264-.023,1.2,1.2,0,0,0-.287-2.373Zm17.694,4.006a1.188,1.188,0,0,0-1.031.447,1.2,1.2,0,1,0,1.681-.192A1.19,1.19,0,0,0,27.119,24.233Zm-15.834,0a1.19,1.19,0,0,0-.653.259,1.2,1.2,0,0,0,.753,2.136,1.134,1.134,0,0,0,.744-.263,1.19,1.19,0,0,0,.192-1.681A1.207,1.207,0,0,0,11.284,24.236Zm3.636,2.773a1.2,1.2,0,1,0,.464.119A1.2,1.2,0,0,0,14.92,27.009Zm8.567,0a1.218,1.218,0,0,0-.464.119,1.2,1.2,0,1,0,1.608.559A1.206,1.206,0,0,0,23.488,27.009ZM19.2,28.016a1.188,1.188,0,0,0-.848.336,1.688,1.688,0,0,0-.152.184,1.013,1.013,0,0,0-.1.208,1.041,1.041,0,0,0-.072.225A1.074,1.074,0,0,0,18,29.2a1.2,1.2,0,0,0,1.2,1.2,1.236,1.236,0,0,0,.456-.089,1.288,1.288,0,0,0,.392-.264,1.2,1.2,0,0,0,.264-.392A1.24,1.24,0,0,0,20.4,29.2a1.074,1.074,0,0,0-.023-.231,1.846,1.846,0,0,0-.064-.225,1.719,1.719,0,0,0-.112-.208,1.688,1.688,0,0,0-.152-.184A1.188,1.188,0,0,0,19.2,28.016Z" transform="translate(199.8 384.8)" fill="#113d6b"/></g></svg>