<svg xmlns="http://www.w3.org/2000/svg" xmlns:xlink="http://www.w3.org/1999/xlink" width="24" height="24" viewBox="0 0 24 24"><defs><clipPath id="a"><rect width="24" height="24" transform="translate(213 763)" fill="#8ba0b7"/></clipPath></defs><g transform="translate(-213 -763)" clip-path="url(#a)"><path d="M10.667,4A6.674,6.674,0,0,0,4,10.667V21.333A6.674,6.674,0,0,0,10.667,28H21.333A6.674,6.674,0,0,0,28,21.333V10.667A6.674,6.674,0,0,0,21.333,4Zm0,2.667H21.333a4,4,0,0,1,4,4V21.333a4,4,0,0,1-4,4H10.667a4,4,0,0,1-4-4V10.667A4,4,0,0,1,10.667,6.667ZM22.667,8A1.333,1.333,0,1,0,24,9.333,1.333,1.333,0,0,0,22.667,8ZM16,9.333A6.667,6.667,0,1,0,22.667,16,6.674,6.674,0,0,0,16,9.333ZM16,12a4,4,0,1,1-4,4A4,4,0,0,1,16,12Z" transform="translate(209 759)" fill="#8ba0b7"/></g></svg>