<svg xmlns="http://www.w3.org/2000/svg" xmlns:xlink="http://www.w3.org/1999/xlink" width="14" height="14" viewBox="0 0 14 14"><defs><clipPath id="a"><rect width="14" height="14" transform="translate(1059 568)" fill="#8ba0b7" stroke="#707070" stroke-width="1"/></clipPath></defs><g transform="translate(-1059 -568)" clip-path="url(#a)"><path d="M8,2a2.667,2.667,0,1,0,2.667,2.667A2.667,2.667,0,0,0,8,2Zm3.333,5.333A1.343,1.343,0,0,0,10,8.667v.667H9.333A1.337,1.337,0,0,0,8,10.667v4A1.337,1.337,0,0,0,9.333,16h5.333A1.337,1.337,0,0,0,16,14.667v-4a1.337,1.337,0,0,0-1.333-1.333H14V8.667a1.343,1.343,0,0,0-1.333-1.333Zm0,1.333h1.333v.667H11.333ZM6.987,9.4C4.854,9.653,2,10.653,2,12.333V14H6.667V10.667A2.685,2.685,0,0,1,6.987,9.4Zm4.151,1.462.862.862.862-.862.943.943-.862.862.862.862-.943.943L12,13.609l-.862.862-.943-.943.862-.862L10.2,11.8Z" transform="translate(1057 566)" fill="#8ba0b7"/></g></svg>