<svg xmlns="http://www.w3.org/2000/svg" xmlns:xlink="http://www.w3.org/1999/xlink" width="16" height="16" viewBox="0 0 16 16"><defs><clipPath id="a"><rect width="16" height="16" transform="translate(1059 568)" fill="#7a7c7d"/></clipPath></defs><g transform="translate(-1059 -568)" clip-path="url(#a)"><path d="M2.909,2.909A1.456,1.456,0,0,0,1.455,4.364v8.727a1.456,1.456,0,0,0,1.455,1.455h7.8L8,11.834V8h3.835L16,12.165v-7.8a1.456,1.456,0,0,0-1.455-1.455ZM9.455,9.455v1.777l4.575,4.575,1.777-1.778L11.232,9.455Zm6.982,5.2-1.778,1.778.889.888a.443.443,0,0,0,.628,0l1.149-1.149a.443.443,0,0,0,0-.628Z" transform="translate(1057.545 565.818)" fill="#7a7c7d"/></g></svg>