<svg xmlns="http://www.w3.org/2000/svg" xmlns:xlink="http://www.w3.org/1999/xlink" width="18" height="18" viewBox="0 0 18 18"><defs><clipPath id="a"><rect width="18" height="18" transform="translate(173 729)" fill="#040f1b"/></clipPath></defs><g transform="translate(-173 -729)" clip-path="url(#a)"><path d="M12,3a4,4,0,1,0,4,4A4,4,0,0,0,12,3Zm0,2a2,2,0,1,1-2,2A2,2,0,0,1,12,5ZM9.436,14.264C6.457,14.815,3,16.228,3,18.5V21H21V18.5c0-2.272-3.456-3.686-6.436-4.236L12,16.828Zm-.643,2.186,1.793,1.793.758.758H5v-.5C5,18.071,6.3,17.074,8.793,16.449Zm6.414,0C17.7,17.074,19,18.071,19,18.5V19H12.656l.758-.758Z" transform="translate(170 726)" fill="#113d6b"/></g></svg>