<svg xmlns="http://www.w3.org/2000/svg" xmlns:xlink="http://www.w3.org/1999/xlink" width="16" height="16" viewBox="0 0 16 16"><defs><clipPath id="a"><rect width="16" height="16" transform="translate(1057 507)" fill="#3c7fc6"/></clipPath></defs><g transform="translate(-1057 -507)" clip-path="url(#a)"><path d="M4.383,1.461A1.465,1.465,0,0,0,2.922,2.922V14.611a1.465,1.465,0,0,0,1.461,1.461h3.71a5.809,5.809,0,0,1-.786-2.814,5.888,5.888,0,0,1,3.981-5.622,5.5,5.5,0,0,1,3.323-.14V6.147A.729.729,0,0,0,14.4,5.63L10.442,1.675a.73.73,0,0,0-.517-.214ZM9.5,2.557l4.018,4.018H9.5Zm3.654,6.21a4.381,4.381,0,0,0-3.623,6.848l-.674.674a.3.3,0,0,0,.214.515H10.83a.731.731,0,0,0,.86-.886V14.183a.3.3,0,0,0-.515-.214l-.585.585a2.921,2.921,0,1,1,3.146,1.46.731.731,0,0,0,.29,1.433,4.384,4.384,0,0,0-.875-8.68Z" transform="translate(1054.771 505.539)" fill="#3c7fc6"/></g></svg>