<svg xmlns="http://www.w3.org/2000/svg" xmlns:xlink="http://www.w3.org/1999/xlink" width="14" height="14" viewBox="0 0 14 14"><defs><clipPath id="a"><rect width="14" height="14" transform="translate(1059 508)" fill="#7a7c7d"/></clipPath></defs><g transform="translate(-1059 -508)" clip-path="url(#a)"><path d="M1.822,1.822A1.224,1.224,0,0,0,.607,3.037v7.289a.607.607,0,1,0,1.215,0V3.037h9.111a.607.607,0,1,0,0-1.215Zm2.43,2.43a1.213,1.213,0,0,0-1.166.895L8.5,8.5l5.409-3.389a1.214,1.214,0,0,0-1.157-.862ZM13.97,6.291,8.824,9.518a.606.606,0,0,1-.642,0L3.037,6.331v5.209a1.214,1.214,0,0,0,1.215,1.215H8.645a1.8,1.8,0,0,1-.112-.607,1.824,1.824,0,0,1,1.822-1.822h.607v-.141A1.527,1.527,0,0,1,12.49,8.66a1.509,1.509,0,0,1,1.075.446l.406.406Zm-1.43,3.588a.31.31,0,0,0-.363.306v1.356H10.356a.607.607,0,0,0,0,1.215h1.822v1.356a.31.31,0,0,0,.528.22l1.7-1.7a.679.679,0,0,0,0-.959l-1.7-1.7A.305.305,0,0,0,12.541,9.879Z" transform="translate(1058.393 506.878)" fill="#7a7c7d"/></g></svg>