<svg xmlns="http://www.w3.org/2000/svg" xmlns:xlink="http://www.w3.org/1999/xlink" width="79" height="79" viewBox="0 0 79 79"><defs><clipPath id="a"><rect width="32" height="32" transform="translate(203 388)" fill="#040f1b"/></clipPath></defs><g transform="translate(-179 -364)"><circle cx="39.5" cy="39.5" r="39.5" transform="translate(179 364)" fill="#e0f6fe"/><path d="M39.5,1A38.51,38.51,0,0,0,24.514,74.975,38.51,38.51,0,0,0,54.486,4.025,38.258,38.258,0,0,0,39.5,1m0-1A39.5,39.5,0,1,1,0,39.5,39.5,39.5,0,0,1,39.5,0Z" transform="translate(179 364)" fill="#c8dbee"/><g clip-path="url(#a)"><path d="M19.2,3.2a16.018,16.018,0,0,0-16,16,15.852,15.852,0,0,0,1.809,7.253L3.275,32.661a2.042,2.042,0,0,0,2.466,2.466l6.214-1.734A15.849,15.849,0,0,0,19.2,35.2a16,16,0,1,0,0-32Zm0,2.4a13.6,13.6,0,1,1-6.606,25.484,1.2,1.2,0,0,0-.906-.108L5.778,32.623l1.65-5.906a1.2,1.2,0,0,0-.108-.908A13.592,13.592,0,0,1,19.2,5.6Zm-6.8,9.6a1.2,1.2,0,1,0,0,2.4H26a1.2,1.2,0,1,0,0-2.4Zm0,5.6a1.2,1.2,0,1,0,0,2.4H22.8a1.2,1.2,0,1,0,0-2.4Z" transform="translate(199.8 384.802)" fill="#113d6b"/></g></g></svg>