<svg xmlns="http://www.w3.org/2000/svg" xmlns:xlink="http://www.w3.org/1999/xlink" width="14" height="14" viewBox="0 0 14 14"><defs><clipPath id="a"><rect width="14" height="14" transform="translate(729)" fill="#113d6b"/></clipPath></defs><g transform="translate(-729)" clip-path="url(#a)"><path d="M4.359,3.486a.874.874,0,0,0-.609,1.5l5.5,5.5-5.5,5.5a.874.874,0,1,0,1.235,1.235l5.5-5.5,5.5,5.5a.874.874,0,1,0,1.235-1.235l-5.5-5.5,5.5-5.5A.874.874,0,1,0,15.98,3.75l-5.5,5.5-5.5-5.5A.874.874,0,0,0,4.359,3.486Z" transform="translate(725.515 -3.485)" fill="#113d6b"/></g></svg>