<svg xmlns="http://www.w3.org/2000/svg" xmlns:xlink="http://www.w3.org/1999/xlink" width="16" height="16" viewBox="0 0 16 16"><defs><clipPath id="a"><rect width="16" height="16" transform="translate(271 3464)" fill="maroon"/></clipPath></defs><g transform="translate(-271 -3464)" clip-path="url(#a)"><path d="M9.6,1.6a8,8,0,1,0,8,8A7.993,7.993,0,0,0,9.6,1.6Zm3.766,10.634a.8.8,0,1,1-1.131,1.131L9.6,10.731,6.966,13.366a.8.8,0,1,1-1.131-1.131L8.469,9.6,5.834,6.966A.8.8,0,0,1,6.966,5.834L9.6,8.469l2.634-2.634a.8.8,0,1,1,1.131,1.131L10.731,9.6Z" transform="translate(269.4 3462.4)" fill="maroon"/></g></svg>